<mxfile host="app.diagrams.net" modified="2021-04-28T07:38:58.097Z" agent="5.0 (Macintosh; Intel Mac OS X 10_15_7) AppleWebKit/537.36 (KHTML, like Gecko) Chrome/90.0.4430.85 Safari/537.36" etag="9ZeptMOXQuCaK9ZsIuJz" version="14.6.6" type="github">
  <diagram id="f2I6vDPKOS6B21L50LBP" name="MyBatis">
    <mxGraphModel dx="2066" dy="1202" grid="1" gridSize="10" guides="1" tooltips="1" connect="1" arrows="1" fold="1" page="1" pageScale="1" pageWidth="3300" pageHeight="4681" math="0" shadow="0">
      <root>
        <mxCell id="0" />
        <mxCell id="1" parent="0" />
        <mxCell id="y6wtNaFaqwbzHfmVruar-4" style="edgeStyle=orthogonalEdgeStyle;rounded=0;orthogonalLoop=1;jettySize=auto;html=1;exitX=1;exitY=0.5;exitDx=0;exitDy=0;entryX=0;entryY=0.5;entryDx=0;entryDy=0;" edge="1" parent="1" source="y6wtNaFaqwbzHfmVruar-2" target="y6wtNaFaqwbzHfmVruar-3">
          <mxGeometry relative="1" as="geometry" />
        </mxCell>
        <mxCell id="y6wtNaFaqwbzHfmVruar-2" value="什么是 MyBatis ？" style="ellipse;whiteSpace=wrap;html=1;" vertex="1" parent="1">
          <mxGeometry x="300" y="220" width="140" height="80" as="geometry" />
        </mxCell>
        <mxCell id="y6wtNaFaqwbzHfmVruar-18" value="" style="edgeStyle=none;rounded=0;orthogonalLoop=1;jettySize=auto;html=1;" edge="1" parent="1" source="y6wtNaFaqwbzHfmVruar-3" target="y6wtNaFaqwbzHfmVruar-17">
          <mxGeometry relative="1" as="geometry" />
        </mxCell>
        <mxCell id="y6wtNaFaqwbzHfmVruar-3" value="MyBatis 是一款持久层框架，支持自定义 SQL、存储过程以及高级映射" style="rounded=0;whiteSpace=wrap;html=1;" vertex="1" parent="1">
          <mxGeometry x="520" y="210" width="470" height="100" as="geometry" />
        </mxCell>
        <mxCell id="y6wtNaFaqwbzHfmVruar-5" value="&lt;meta charset=&quot;utf-8&quot;&gt;&lt;pre class=&quot;prettyprint&quot; style=&quot;padding: 2px; font-family: monaco, menlo, consolas, &amp;quot;courier new&amp;quot;, monospace; font-size: 13px; color: rgb(51, 51, 51); border-radius: 4px; display: block; margin: 0px 0px 20px; line-height: 20px; word-break: break-all; overflow-wrap: break-word; background-color: rgb(245, 245, 245); border: 1px solid rgb(136, 136, 136); font-style: normal; font-weight: 400; letter-spacing: normal; text-indent: 0px; text-transform: none; word-spacing: 0px;&quot;&gt;&lt;span class=&quot;typ&quot; style=&quot;color: rgb(102 , 0 , 102)&quot;&gt;DataSource&lt;/span&gt;&lt;span class=&quot;pln&quot; style=&quot;color: rgb(0 , 0 , 0)&quot;&gt; dataSource &lt;/span&gt;&lt;span class=&quot;pun&quot; style=&quot;color: rgb(102 , 102 , 0)&quot;&gt;=&lt;/span&gt;&lt;span class=&quot;pln&quot; style=&quot;color: rgb(0 , 0 , 0)&quot;&gt; &lt;/span&gt;&lt;span class=&quot;typ&quot; style=&quot;color: rgb(102 , 0 , 102)&quot;&gt;BlogDataSourceFactory&lt;/span&gt;&lt;span class=&quot;pun&quot; style=&quot;color: rgb(102 , 102 , 0)&quot;&gt;.&lt;/span&gt;&lt;span class=&quot;pln&quot; style=&quot;color: rgb(0 , 0 , 0)&quot;&gt;getBlogDataSource&lt;/span&gt;&lt;span class=&quot;pun&quot; style=&quot;color: rgb(102 , 102 , 0)&quot;&gt;();&lt;/span&gt;&lt;span class=&quot;pln&quot; style=&quot;color: rgb(0 , 0 , 0)&quot;&gt;&#xa;&lt;/span&gt;&lt;span class=&quot;typ&quot; style=&quot;color: rgb(102 , 0 , 102)&quot;&gt;TransactionFactory&lt;/span&gt;&lt;span class=&quot;pln&quot; style=&quot;color: rgb(0 , 0 , 0)&quot;&gt; transactionFactory &lt;/span&gt;&lt;span class=&quot;pun&quot; style=&quot;color: rgb(102 , 102 , 0)&quot;&gt;=&lt;/span&gt;&lt;span class=&quot;pln&quot; style=&quot;color: rgb(0 , 0 , 0)&quot;&gt; &lt;/span&gt;&lt;span class=&quot;kwd&quot; style=&quot;color: rgb(0 , 0 , 136)&quot;&gt;new&lt;/span&gt;&lt;span class=&quot;pln&quot; style=&quot;color: rgb(0 , 0 , 0)&quot;&gt; &lt;/span&gt;&lt;span class=&quot;typ&quot; style=&quot;color: rgb(102 , 0 , 102)&quot;&gt;JdbcTransactionFactory&lt;/span&gt;&lt;span class=&quot;pun&quot; style=&quot;color: rgb(102 , 102 , 0)&quot;&gt;();&lt;/span&gt;&lt;span class=&quot;pln&quot; style=&quot;color: rgb(0 , 0 , 0)&quot;&gt;&#xa;&lt;/span&gt;&lt;span class=&quot;typ&quot; style=&quot;color: rgb(102 , 0 , 102)&quot;&gt;Environment&lt;/span&gt;&lt;span class=&quot;pln&quot; style=&quot;color: rgb(0 , 0 , 0)&quot;&gt; environment &lt;/span&gt;&lt;span class=&quot;pun&quot; style=&quot;color: rgb(102 , 102 , 0)&quot;&gt;=&lt;/span&gt;&lt;span class=&quot;pln&quot; style=&quot;color: rgb(0 , 0 , 0)&quot;&gt; &lt;/span&gt;&lt;span class=&quot;kwd&quot; style=&quot;color: rgb(0 , 0 , 136)&quot;&gt;new&lt;/span&gt;&lt;span class=&quot;pln&quot; style=&quot;color: rgb(0 , 0 , 0)&quot;&gt; &lt;/span&gt;&lt;span class=&quot;typ&quot; style=&quot;color: rgb(102 , 0 , 102)&quot;&gt;Environment&lt;/span&gt;&lt;span class=&quot;pun&quot; style=&quot;color: rgb(102 , 102 , 0)&quot;&gt;(&lt;/span&gt;&lt;span class=&quot;str&quot; style=&quot;color: rgb(0 , 136 , 0)&quot;&gt;&quot;development&quot;&lt;/span&gt;&lt;span class=&quot;pun&quot; style=&quot;color: rgb(102 , 102 , 0)&quot;&gt;,&lt;/span&gt;&lt;span class=&quot;pln&quot; style=&quot;color: rgb(0 , 0 , 0)&quot;&gt; transactionFactory&lt;/span&gt;&lt;span class=&quot;pun&quot; style=&quot;color: rgb(102 , 102 , 0)&quot;&gt;,&lt;/span&gt;&lt;span class=&quot;pln&quot; style=&quot;color: rgb(0 , 0 , 0)&quot;&gt; dataSource&lt;/span&gt;&lt;span class=&quot;pun&quot; style=&quot;color: rgb(102 , 102 , 0)&quot;&gt;);&lt;/span&gt;&lt;span class=&quot;pln&quot; style=&quot;color: rgb(0 , 0 , 0)&quot;&gt;&#xa;&lt;/span&gt;&lt;span class=&quot;typ&quot; style=&quot;color: rgb(102 , 0 , 102)&quot;&gt;Configuration&lt;/span&gt;&lt;span class=&quot;pln&quot; style=&quot;color: rgb(0 , 0 , 0)&quot;&gt; configuration &lt;/span&gt;&lt;span class=&quot;pun&quot; style=&quot;color: rgb(102 , 102 , 0)&quot;&gt;=&lt;/span&gt;&lt;span class=&quot;pln&quot; style=&quot;color: rgb(0 , 0 , 0)&quot;&gt; &lt;/span&gt;&lt;span class=&quot;kwd&quot; style=&quot;color: rgb(0 , 0 , 136)&quot;&gt;new&lt;/span&gt;&lt;span class=&quot;pln&quot; style=&quot;color: rgb(0 , 0 , 0)&quot;&gt; &lt;/span&gt;&lt;span class=&quot;typ&quot; style=&quot;color: rgb(102 , 0 , 102)&quot;&gt;Configuration&lt;/span&gt;&lt;span class=&quot;pun&quot; style=&quot;color: rgb(102 , 102 , 0)&quot;&gt;(&lt;/span&gt;&lt;span class=&quot;pln&quot; style=&quot;color: rgb(0 , 0 , 0)&quot;&gt;environment&lt;/span&gt;&lt;span class=&quot;pun&quot; style=&quot;color: rgb(102 , 102 , 0)&quot;&gt;);&lt;/span&gt;&lt;span class=&quot;pln&quot; style=&quot;color: rgb(0 , 0 , 0)&quot;&gt;&#xa;configuration&lt;/span&gt;&lt;span class=&quot;pun&quot; style=&quot;color: rgb(102 , 102 , 0)&quot;&gt;.&lt;/span&gt;&lt;span class=&quot;pln&quot; style=&quot;color: rgb(0 , 0 , 0)&quot;&gt;addMapper&lt;/span&gt;&lt;span class=&quot;pun&quot; style=&quot;color: rgb(102 , 102 , 0)&quot;&gt;(&lt;/span&gt;&lt;span class=&quot;typ&quot; style=&quot;color: rgb(102 , 0 , 102)&quot;&gt;BlogMapper&lt;/span&gt;&lt;span class=&quot;pun&quot; style=&quot;color: rgb(102 , 102 , 0)&quot;&gt;.&lt;/span&gt;&lt;span class=&quot;kwd&quot; style=&quot;color: rgb(0 , 0 , 136)&quot;&gt;class&lt;/span&gt;&lt;span class=&quot;pun&quot; style=&quot;color: rgb(102 , 102 , 0)&quot;&gt;);&lt;/span&gt;&lt;span class=&quot;pln&quot; style=&quot;color: rgb(0 , 0 , 0)&quot;&gt;&#xa;&lt;/span&gt;&lt;span class=&quot;typ&quot; style=&quot;color: rgb(102 , 0 , 102)&quot;&gt;SqlSessionFactory&lt;/span&gt;&lt;span class=&quot;pln&quot; style=&quot;color: rgb(0 , 0 , 0)&quot;&gt; sqlSessionFactory &lt;/span&gt;&lt;span class=&quot;pun&quot; style=&quot;color: rgb(102 , 102 , 0)&quot;&gt;=&lt;/span&gt;&lt;span class=&quot;pln&quot; style=&quot;color: rgb(0 , 0 , 0)&quot;&gt; &lt;/span&gt;&lt;span class=&quot;kwd&quot; style=&quot;color: rgb(0 , 0 , 136)&quot;&gt;new&lt;/span&gt;&lt;span class=&quot;pln&quot; style=&quot;color: rgb(0 , 0 , 0)&quot;&gt; &lt;/span&gt;&lt;span class=&quot;typ&quot; style=&quot;color: rgb(102 , 0 , 102)&quot;&gt;SqlSessionFactoryBuilder&lt;/span&gt;&lt;span class=&quot;pun&quot; style=&quot;color: rgb(102 , 102 , 0)&quot;&gt;().&lt;/span&gt;&lt;span class=&quot;pln&quot; style=&quot;color: rgb(0 , 0 , 0)&quot;&gt;build&lt;/span&gt;&lt;span class=&quot;pun&quot; style=&quot;color: rgb(102 , 102 , 0)&quot;&gt;(&lt;/span&gt;&lt;span class=&quot;pln&quot; style=&quot;color: rgb(0 , 0 , 0)&quot;&gt;configuration&lt;/span&gt;&lt;span class=&quot;pun&quot; style=&quot;color: rgb(102 , 102 , 0)&quot;&gt;);&lt;/span&gt;&lt;/pre&gt;" style="text;whiteSpace=wrap;html=1;" vertex="1" parent="1">
          <mxGeometry x="530" y="750" width="720" height="140" as="geometry" />
        </mxCell>
        <mxCell id="y6wtNaFaqwbzHfmVruar-7" style="rounded=0;orthogonalLoop=1;jettySize=auto;html=1;exitX=1;exitY=0.5;exitDx=0;exitDy=0;entryX=0;entryY=0.5;entryDx=0;entryDy=0;" edge="1" parent="1" source="y6wtNaFaqwbzHfmVruar-6" target="y6wtNaFaqwbzHfmVruar-5">
          <mxGeometry relative="1" as="geometry" />
        </mxCell>
        <mxCell id="y6wtNaFaqwbzHfmVruar-9" style="edgeStyle=none;rounded=0;orthogonalLoop=1;jettySize=auto;html=1;exitX=1;exitY=0.5;exitDx=0;exitDy=0;entryX=0;entryY=0.5;entryDx=0;entryDy=0;" edge="1" parent="1" source="y6wtNaFaqwbzHfmVruar-6" target="y6wtNaFaqwbzHfmVruar-8">
          <mxGeometry relative="1" as="geometry" />
        </mxCell>
        <mxCell id="y6wtNaFaqwbzHfmVruar-14" style="edgeStyle=none;rounded=0;orthogonalLoop=1;jettySize=auto;html=1;exitX=0.5;exitY=1;exitDx=0;exitDy=0;entryX=0.5;entryY=0;entryDx=0;entryDy=0;" edge="1" parent="1" source="y6wtNaFaqwbzHfmVruar-6" target="y6wtNaFaqwbzHfmVruar-13">
          <mxGeometry relative="1" as="geometry" />
        </mxCell>
        <mxCell id="y6wtNaFaqwbzHfmVruar-6" value="构建 SqlSessionFactory" style="rounded=0;whiteSpace=wrap;html=1;" vertex="1" parent="1">
          <mxGeometry x="210" y="610" width="180" height="60" as="geometry" />
        </mxCell>
        <mxCell id="y6wtNaFaqwbzHfmVruar-11" value="mybatis-config.xml" style="edgeStyle=none;rounded=0;orthogonalLoop=1;jettySize=auto;html=1;exitX=1;exitY=0.5;exitDx=0;exitDy=0;entryX=0;entryY=0.5;entryDx=0;entryDy=0;" edge="1" parent="1" source="y6wtNaFaqwbzHfmVruar-8" target="y6wtNaFaqwbzHfmVruar-10">
          <mxGeometry relative="1" as="geometry" />
        </mxCell>
        <mxCell id="y6wtNaFaqwbzHfmVruar-8" value="&lt;meta charset=&quot;utf-8&quot;&gt;&lt;pre class=&quot;prettyprint&quot; style=&quot;padding: 2px; font-family: monaco, menlo, consolas, &amp;quot;courier new&amp;quot;, monospace; font-size: 13px; color: rgb(51, 51, 51); border-radius: 4px; display: block; margin: 0px 0px 20px; line-height: 20px; word-break: break-all; overflow-wrap: break-word; background-color: rgb(245, 245, 245); border: 1px solid rgb(136, 136, 136); font-style: normal; font-weight: 400; letter-spacing: normal; text-indent: 0px; text-transform: none; word-spacing: 0px;&quot;&gt;&lt;span class=&quot;typ&quot; style=&quot;color: rgb(102 , 0 , 102)&quot;&gt;String&lt;/span&gt;&lt;span class=&quot;pln&quot; style=&quot;color: rgb(0 , 0 , 0)&quot;&gt; resource &lt;/span&gt;&lt;span class=&quot;pun&quot; style=&quot;color: rgb(102 , 102 , 0)&quot;&gt;=&lt;/span&gt;&lt;span class=&quot;pln&quot; style=&quot;color: rgb(0 , 0 , 0)&quot;&gt; &lt;/span&gt;&lt;span class=&quot;str&quot; style=&quot;color: rgb(0 , 136 , 0)&quot;&gt;&quot;org/mybatis/example/mybatis-config.xml&quot;&lt;/span&gt;&lt;span class=&quot;pun&quot; style=&quot;color: rgb(102 , 102 , 0)&quot;&gt;;&lt;/span&gt;&lt;span class=&quot;pln&quot; style=&quot;color: rgb(0 , 0 , 0)&quot;&gt;&#xa;&lt;/span&gt;&lt;span class=&quot;typ&quot; style=&quot;color: rgb(102 , 0 , 102)&quot;&gt;InputStream&lt;/span&gt;&lt;span class=&quot;pln&quot; style=&quot;color: rgb(0 , 0 , 0)&quot;&gt; inputStream &lt;/span&gt;&lt;span class=&quot;pun&quot; style=&quot;color: rgb(102 , 102 , 0)&quot;&gt;=&lt;/span&gt;&lt;span class=&quot;pln&quot; style=&quot;color: rgb(0 , 0 , 0)&quot;&gt; &lt;/span&gt;&lt;span class=&quot;typ&quot; style=&quot;color: rgb(102 , 0 , 102)&quot;&gt;Resources&lt;/span&gt;&lt;span class=&quot;pun&quot; style=&quot;color: rgb(102 , 102 , 0)&quot;&gt;.&lt;/span&gt;&lt;span class=&quot;pln&quot; style=&quot;color: rgb(0 , 0 , 0)&quot;&gt;getResourceAsStream&lt;/span&gt;&lt;span class=&quot;pun&quot; style=&quot;color: rgb(102 , 102 , 0)&quot;&gt;(&lt;/span&gt;&lt;span class=&quot;pln&quot; style=&quot;color: rgb(0 , 0 , 0)&quot;&gt;resource&lt;/span&gt;&lt;span class=&quot;pun&quot; style=&quot;color: rgb(102 , 102 , 0)&quot;&gt;);&lt;/span&gt;&lt;span class=&quot;pln&quot; style=&quot;color: rgb(0 , 0 , 0)&quot;&gt;&#xa;&lt;/span&gt;&lt;span class=&quot;typ&quot; style=&quot;color: rgb(102 , 0 , 102)&quot;&gt;SqlSessionFactory&lt;/span&gt;&lt;span class=&quot;pln&quot; style=&quot;color: rgb(0 , 0 , 0)&quot;&gt; sqlSessionFactory &lt;/span&gt;&lt;span class=&quot;pun&quot; style=&quot;color: rgb(102 , 102 , 0)&quot;&gt;=&lt;/span&gt;&lt;span class=&quot;pln&quot; style=&quot;color: rgb(0 , 0 , 0)&quot;&gt; &lt;/span&gt;&lt;span class=&quot;kwd&quot; style=&quot;color: rgb(0 , 0 , 136)&quot;&gt;new&lt;/span&gt;&lt;span class=&quot;pln&quot; style=&quot;color: rgb(0 , 0 , 0)&quot;&gt; &lt;/span&gt;&lt;span class=&quot;typ&quot; style=&quot;color: rgb(102 , 0 , 102)&quot;&gt;SqlSessionFactoryBuilder&lt;/span&gt;&lt;span class=&quot;pun&quot; style=&quot;color: rgb(102 , 102 , 0)&quot;&gt;().&lt;/span&gt;&lt;span class=&quot;pln&quot; style=&quot;color: rgb(0 , 0 , 0)&quot;&gt;build&lt;/span&gt;&lt;span class=&quot;pun&quot; style=&quot;color: rgb(102 , 102 , 0)&quot;&gt;(&lt;/span&gt;&lt;span class=&quot;pln&quot; style=&quot;color: rgb(0 , 0 , 0)&quot;&gt;inputStream&lt;/span&gt;&lt;span class=&quot;pun&quot; style=&quot;color: rgb(102 , 102 , 0)&quot;&gt;);&lt;/span&gt;&lt;/pre&gt;" style="text;whiteSpace=wrap;html=1;" vertex="1" parent="1">
          <mxGeometry x="530" y="490" width="700" height="80" as="geometry" />
        </mxCell>
        <mxCell id="y6wtNaFaqwbzHfmVruar-10" value="&lt;meta charset=&quot;utf-8&quot;&gt;&lt;pre class=&quot;prettyprint&quot; style=&quot;padding: 2px; font-family: monaco, menlo, consolas, &amp;quot;courier new&amp;quot;, monospace; font-size: 13px; color: rgb(51, 51, 51); border-radius: 4px; display: block; margin: 0px 0px 20px; line-height: 20px; word-break: break-all; overflow-wrap: break-word; background-color: rgb(245, 245, 245); border: 1px solid rgb(136, 136, 136); font-style: normal; font-weight: 400; letter-spacing: normal; text-indent: 0px; text-transform: none; word-spacing: 0px;&quot;&gt;&lt;span class=&quot;pun&quot; style=&quot;color: rgb(102 , 102 , 0)&quot;&gt;&amp;lt;?&lt;/span&gt;&lt;span class=&quot;pln&quot; style=&quot;color: rgb(0 , 0 , 0)&quot;&gt;xml version&lt;/span&gt;&lt;span class=&quot;pun&quot; style=&quot;color: rgb(102 , 102 , 0)&quot;&gt;=&lt;/span&gt;&lt;span class=&quot;str&quot; style=&quot;color: rgb(0 , 136 , 0)&quot;&gt;&quot;1.0&quot;&lt;/span&gt;&lt;span class=&quot;pln&quot; style=&quot;color: rgb(0 , 0 , 0)&quot;&gt; encoding&lt;/span&gt;&lt;span class=&quot;pun&quot; style=&quot;color: rgb(102 , 102 , 0)&quot;&gt;=&lt;/span&gt;&lt;span class=&quot;str&quot; style=&quot;color: rgb(0 , 136 , 0)&quot;&gt;&quot;UTF-8&quot;&lt;/span&gt;&lt;span class=&quot;pln&quot; style=&quot;color: rgb(0 , 0 , 0)&quot;&gt; &lt;/span&gt;&lt;span class=&quot;pun&quot; style=&quot;color: rgb(102 , 102 , 0)&quot;&gt;?&amp;gt;&lt;/span&gt;&lt;span class=&quot;pln&quot; style=&quot;color: rgb(0 , 0 , 0)&quot;&gt;&#xa;&lt;/span&gt;&lt;span class=&quot;dec&quot; style=&quot;color: rgb(102 , 0 , 102)&quot;&gt;&amp;lt;!DOCTYPE configuration&#xa;  PUBLIC &quot;-//mybatis.org//DTD Config 3.0//EN&quot;&#xa;  &quot;http://mybatis.org/dtd/mybatis-3-config.dtd&quot;&amp;gt;&lt;/span&gt;&lt;span class=&quot;pln&quot; style=&quot;color: rgb(0 , 0 , 0)&quot;&gt;&#xa;&lt;/span&gt;&lt;span class=&quot;tag&quot; style=&quot;color: rgb(0 , 0 , 136)&quot;&gt;&amp;lt;configuration&amp;gt;&lt;/span&gt;&lt;span class=&quot;pln&quot; style=&quot;color: rgb(0 , 0 , 0)&quot;&gt;&#xa;  &lt;/span&gt;&lt;span class=&quot;tag&quot; style=&quot;color: rgb(0 , 0 , 136)&quot;&gt;&amp;lt;environments&lt;/span&gt;&lt;span class=&quot;pln&quot; style=&quot;color: rgb(0 , 0 , 0)&quot;&gt; &lt;/span&gt;&lt;span class=&quot;atn&quot; style=&quot;color: rgb(102 , 0 , 102)&quot;&gt;default&lt;/span&gt;&lt;span class=&quot;pun&quot; style=&quot;color: rgb(102 , 102 , 0)&quot;&gt;=&lt;/span&gt;&lt;span class=&quot;atv&quot; style=&quot;color: rgb(0 , 136 , 0)&quot;&gt;&quot;development&quot;&lt;/span&gt;&lt;span class=&quot;tag&quot; style=&quot;color: rgb(0 , 0 , 136)&quot;&gt;&amp;gt;&lt;/span&gt;&lt;span class=&quot;pln&quot; style=&quot;color: rgb(0 , 0 , 0)&quot;&gt;&#xa;    &lt;/span&gt;&lt;span class=&quot;tag&quot; style=&quot;color: rgb(0 , 0 , 136)&quot;&gt;&amp;lt;environment&lt;/span&gt;&lt;span class=&quot;pln&quot; style=&quot;color: rgb(0 , 0 , 0)&quot;&gt; &lt;/span&gt;&lt;span class=&quot;atn&quot; style=&quot;color: rgb(102 , 0 , 102)&quot;&gt;id&lt;/span&gt;&lt;span class=&quot;pun&quot; style=&quot;color: rgb(102 , 102 , 0)&quot;&gt;=&lt;/span&gt;&lt;span class=&quot;atv&quot; style=&quot;color: rgb(0 , 136 , 0)&quot;&gt;&quot;development&quot;&lt;/span&gt;&lt;span class=&quot;tag&quot; style=&quot;color: rgb(0 , 0 , 136)&quot;&gt;&amp;gt;&lt;/span&gt;&lt;span class=&quot;pln&quot; style=&quot;color: rgb(0 , 0 , 0)&quot;&gt;&#xa;      &lt;/span&gt;&lt;span class=&quot;tag&quot; style=&quot;color: rgb(0 , 0 , 136)&quot;&gt;&amp;lt;transactionManager&lt;/span&gt;&lt;span class=&quot;pln&quot; style=&quot;color: rgb(0 , 0 , 0)&quot;&gt; &lt;/span&gt;&lt;span class=&quot;atn&quot; style=&quot;color: rgb(102 , 0 , 102)&quot;&gt;type&lt;/span&gt;&lt;span class=&quot;pun&quot; style=&quot;color: rgb(102 , 102 , 0)&quot;&gt;=&lt;/span&gt;&lt;span class=&quot;atv&quot; style=&quot;color: rgb(0 , 136 , 0)&quot;&gt;&quot;JDBC&quot;&lt;/span&gt;&lt;span class=&quot;tag&quot; style=&quot;color: rgb(0 , 0 , 136)&quot;&gt;/&amp;gt;&lt;/span&gt;&lt;span class=&quot;pln&quot; style=&quot;color: rgb(0 , 0 , 0)&quot;&gt;&#xa;      &lt;/span&gt;&lt;span class=&quot;tag&quot; style=&quot;color: rgb(0 , 0 , 136)&quot;&gt;&amp;lt;dataSource&lt;/span&gt;&lt;span class=&quot;pln&quot; style=&quot;color: rgb(0 , 0 , 0)&quot;&gt; &lt;/span&gt;&lt;span class=&quot;atn&quot; style=&quot;color: rgb(102 , 0 , 102)&quot;&gt;type&lt;/span&gt;&lt;span class=&quot;pun&quot; style=&quot;color: rgb(102 , 102 , 0)&quot;&gt;=&lt;/span&gt;&lt;span class=&quot;atv&quot; style=&quot;color: rgb(0 , 136 , 0)&quot;&gt;&quot;POOLED&quot;&lt;/span&gt;&lt;span class=&quot;tag&quot; style=&quot;color: rgb(0 , 0 , 136)&quot;&gt;&amp;gt;&lt;/span&gt;&lt;span class=&quot;pln&quot; style=&quot;color: rgb(0 , 0 , 0)&quot;&gt;&#xa;        &lt;/span&gt;&lt;span class=&quot;tag&quot; style=&quot;color: rgb(0 , 0 , 136)&quot;&gt;&amp;lt;property&lt;/span&gt;&lt;span class=&quot;pln&quot; style=&quot;color: rgb(0 , 0 , 0)&quot;&gt; &lt;/span&gt;&lt;span class=&quot;atn&quot; style=&quot;color: rgb(102 , 0 , 102)&quot;&gt;name&lt;/span&gt;&lt;span class=&quot;pun&quot; style=&quot;color: rgb(102 , 102 , 0)&quot;&gt;=&lt;/span&gt;&lt;span class=&quot;atv&quot; style=&quot;color: rgb(0 , 136 , 0)&quot;&gt;&quot;driver&quot;&lt;/span&gt;&lt;span class=&quot;pln&quot; style=&quot;color: rgb(0 , 0 , 0)&quot;&gt; &lt;/span&gt;&lt;span class=&quot;atn&quot; style=&quot;color: rgb(102 , 0 , 102)&quot;&gt;value&lt;/span&gt;&lt;span class=&quot;pun&quot; style=&quot;color: rgb(102 , 102 , 0)&quot;&gt;=&lt;/span&gt;&lt;span class=&quot;atv&quot; style=&quot;color: rgb(0 , 136 , 0)&quot;&gt;&quot;${driver}&quot;&lt;/span&gt;&lt;span class=&quot;tag&quot; style=&quot;color: rgb(0 , 0 , 136)&quot;&gt;/&amp;gt;&lt;/span&gt;&lt;span class=&quot;pln&quot; style=&quot;color: rgb(0 , 0 , 0)&quot;&gt;&#xa;        &lt;/span&gt;&lt;span class=&quot;tag&quot; style=&quot;color: rgb(0 , 0 , 136)&quot;&gt;&amp;lt;property&lt;/span&gt;&lt;span class=&quot;pln&quot; style=&quot;color: rgb(0 , 0 , 0)&quot;&gt; &lt;/span&gt;&lt;span class=&quot;atn&quot; style=&quot;color: rgb(102 , 0 , 102)&quot;&gt;name&lt;/span&gt;&lt;span class=&quot;pun&quot; style=&quot;color: rgb(102 , 102 , 0)&quot;&gt;=&lt;/span&gt;&lt;span class=&quot;atv&quot; style=&quot;color: rgb(0 , 136 , 0)&quot;&gt;&quot;url&quot;&lt;/span&gt;&lt;span class=&quot;pln&quot; style=&quot;color: rgb(0 , 0 , 0)&quot;&gt; &lt;/span&gt;&lt;span class=&quot;atn&quot; style=&quot;color: rgb(102 , 0 , 102)&quot;&gt;value&lt;/span&gt;&lt;span class=&quot;pun&quot; style=&quot;color: rgb(102 , 102 , 0)&quot;&gt;=&lt;/span&gt;&lt;span class=&quot;atv&quot; style=&quot;color: rgb(0 , 136 , 0)&quot;&gt;&quot;${url}&quot;&lt;/span&gt;&lt;span class=&quot;tag&quot; style=&quot;color: rgb(0 , 0 , 136)&quot;&gt;/&amp;gt;&lt;/span&gt;&lt;span class=&quot;pln&quot; style=&quot;color: rgb(0 , 0 , 0)&quot;&gt;&#xa;        &lt;/span&gt;&lt;span class=&quot;tag&quot; style=&quot;color: rgb(0 , 0 , 136)&quot;&gt;&amp;lt;property&lt;/span&gt;&lt;span class=&quot;pln&quot; style=&quot;color: rgb(0 , 0 , 0)&quot;&gt; &lt;/span&gt;&lt;span class=&quot;atn&quot; style=&quot;color: rgb(102 , 0 , 102)&quot;&gt;name&lt;/span&gt;&lt;span class=&quot;pun&quot; style=&quot;color: rgb(102 , 102 , 0)&quot;&gt;=&lt;/span&gt;&lt;span class=&quot;atv&quot; style=&quot;color: rgb(0 , 136 , 0)&quot;&gt;&quot;username&quot;&lt;/span&gt;&lt;span class=&quot;pln&quot; style=&quot;color: rgb(0 , 0 , 0)&quot;&gt; &lt;/span&gt;&lt;span class=&quot;atn&quot; style=&quot;color: rgb(102 , 0 , 102)&quot;&gt;value&lt;/span&gt;&lt;span class=&quot;pun&quot; style=&quot;color: rgb(102 , 102 , 0)&quot;&gt;=&lt;/span&gt;&lt;span class=&quot;atv&quot; style=&quot;color: rgb(0 , 136 , 0)&quot;&gt;&quot;${username}&quot;&lt;/span&gt;&lt;span class=&quot;tag&quot; style=&quot;color: rgb(0 , 0 , 136)&quot;&gt;/&amp;gt;&lt;/span&gt;&lt;span class=&quot;pln&quot; style=&quot;color: rgb(0 , 0 , 0)&quot;&gt;&#xa;        &lt;/span&gt;&lt;span class=&quot;tag&quot; style=&quot;color: rgb(0 , 0 , 136)&quot;&gt;&amp;lt;property&lt;/span&gt;&lt;span class=&quot;pln&quot; style=&quot;color: rgb(0 , 0 , 0)&quot;&gt; &lt;/span&gt;&lt;span class=&quot;atn&quot; style=&quot;color: rgb(102 , 0 , 102)&quot;&gt;name&lt;/span&gt;&lt;span class=&quot;pun&quot; style=&quot;color: rgb(102 , 102 , 0)&quot;&gt;=&lt;/span&gt;&lt;span class=&quot;atv&quot; style=&quot;color: rgb(0 , 136 , 0)&quot;&gt;&quot;password&quot;&lt;/span&gt;&lt;span class=&quot;pln&quot; style=&quot;color: rgb(0 , 0 , 0)&quot;&gt; &lt;/span&gt;&lt;span class=&quot;atn&quot; style=&quot;color: rgb(102 , 0 , 102)&quot;&gt;value&lt;/span&gt;&lt;span class=&quot;pun&quot; style=&quot;color: rgb(102 , 102 , 0)&quot;&gt;=&lt;/span&gt;&lt;span class=&quot;atv&quot; style=&quot;color: rgb(0 , 136 , 0)&quot;&gt;&quot;${password}&quot;&lt;/span&gt;&lt;span class=&quot;tag&quot; style=&quot;color: rgb(0 , 0 , 136)&quot;&gt;/&amp;gt;&lt;/span&gt;&lt;span class=&quot;pln&quot; style=&quot;color: rgb(0 , 0 , 0)&quot;&gt;&#xa;      &lt;/span&gt;&lt;span class=&quot;tag&quot; style=&quot;color: rgb(0 , 0 , 136)&quot;&gt;&amp;lt;/dataSource&amp;gt;&lt;/span&gt;&lt;span class=&quot;pln&quot; style=&quot;color: rgb(0 , 0 , 0)&quot;&gt;&#xa;    &lt;/span&gt;&lt;span class=&quot;tag&quot; style=&quot;color: rgb(0 , 0 , 136)&quot;&gt;&amp;lt;/environment&amp;gt;&lt;/span&gt;&lt;span class=&quot;pln&quot; style=&quot;color: rgb(0 , 0 , 0)&quot;&gt;&#xa;  &lt;/span&gt;&lt;span class=&quot;tag&quot; style=&quot;color: rgb(0 , 0 , 136)&quot;&gt;&amp;lt;/environments&amp;gt;&lt;/span&gt;&lt;span class=&quot;pln&quot; style=&quot;color: rgb(0 , 0 , 0)&quot;&gt;&#xa;  &lt;/span&gt;&lt;span class=&quot;tag&quot; style=&quot;color: rgb(0 , 0 , 136)&quot;&gt;&amp;lt;mappers&amp;gt;&lt;/span&gt;&lt;span class=&quot;pln&quot; style=&quot;color: rgb(0 , 0 , 0)&quot;&gt;&#xa;    &lt;/span&gt;&lt;span class=&quot;tag&quot; style=&quot;color: rgb(0 , 0 , 136)&quot;&gt;&amp;lt;mapper&lt;/span&gt;&lt;span class=&quot;pln&quot; style=&quot;color: rgb(0 , 0 , 0)&quot;&gt; &lt;/span&gt;&lt;span class=&quot;atn&quot; style=&quot;color: rgb(102 , 0 , 102)&quot;&gt;resource&lt;/span&gt;&lt;span class=&quot;pun&quot; style=&quot;color: rgb(102 , 102 , 0)&quot;&gt;=&lt;/span&gt;&lt;span class=&quot;atv&quot; style=&quot;color: rgb(0 , 136 , 0)&quot;&gt;&quot;org/mybatis/example/BlogMapper.xml&quot;&lt;/span&gt;&lt;span class=&quot;tag&quot; style=&quot;color: rgb(0 , 0 , 136)&quot;&gt;/&amp;gt;&lt;/span&gt;&lt;span class=&quot;pln&quot; style=&quot;color: rgb(0 , 0 , 0)&quot;&gt;&#xa;  &lt;/span&gt;&lt;span class=&quot;tag&quot; style=&quot;color: rgb(0 , 0 , 136)&quot;&gt;&amp;lt;/mappers&amp;gt;&lt;/span&gt;&lt;span class=&quot;pln&quot; style=&quot;color: rgb(0 , 0 , 0)&quot;&gt;&#xa;&lt;/span&gt;&lt;span class=&quot;tag&quot; style=&quot;color: rgb(0 , 0 , 136)&quot;&gt;&amp;lt;/configuration&amp;gt;&lt;/span&gt;&lt;/pre&gt;" style="text;whiteSpace=wrap;html=1;" vertex="1" parent="1">
          <mxGeometry x="1460" y="320" width="470" height="420" as="geometry" />
        </mxCell>
        <mxCell id="y6wtNaFaqwbzHfmVruar-16" style="edgeStyle=none;rounded=0;orthogonalLoop=1;jettySize=auto;html=1;exitX=1;exitY=0.5;exitDx=0;exitDy=0;entryX=0;entryY=0.5;entryDx=0;entryDy=0;" edge="1" parent="1" source="y6wtNaFaqwbzHfmVruar-13" target="y6wtNaFaqwbzHfmVruar-15">
          <mxGeometry relative="1" as="geometry" />
        </mxCell>
        <mxCell id="y6wtNaFaqwbzHfmVruar-13" value="获取 SqlSession" style="rounded=0;whiteSpace=wrap;html=1;" vertex="1" parent="1">
          <mxGeometry x="240" y="1010" width="120" height="60" as="geometry" />
        </mxCell>
        <mxCell id="y6wtNaFaqwbzHfmVruar-15" value="&lt;meta charset=&quot;utf-8&quot;&gt;&lt;pre class=&quot;prettyprint&quot; style=&quot;padding: 2px; font-family: monaco, menlo, consolas, &amp;quot;courier new&amp;quot;, monospace; font-size: 13px; color: rgb(51, 51, 51); border-radius: 4px; display: block; margin: 0px 0px 20px; line-height: 20px; word-break: break-all; overflow-wrap: break-word; background-color: rgb(245, 245, 245); border: 1px solid rgb(136, 136, 136); font-style: normal; font-weight: 400; letter-spacing: normal; text-indent: 0px; text-transform: none; word-spacing: 0px;&quot;&gt;&lt;span class=&quot;kwd&quot; style=&quot;color: rgb(0 , 0 , 136)&quot;&gt;try&lt;/span&gt;&lt;span class=&quot;pln&quot; style=&quot;color: rgb(0 , 0 , 0)&quot;&gt; &lt;/span&gt;&lt;span class=&quot;pun&quot; style=&quot;color: rgb(102 , 102 , 0)&quot;&gt;(&lt;/span&gt;&lt;span class=&quot;typ&quot; style=&quot;color: rgb(102 , 0 , 102)&quot;&gt;SqlSession&lt;/span&gt;&lt;span class=&quot;pln&quot; style=&quot;color: rgb(0 , 0 , 0)&quot;&gt; session &lt;/span&gt;&lt;span class=&quot;pun&quot; style=&quot;color: rgb(102 , 102 , 0)&quot;&gt;=&lt;/span&gt;&lt;span class=&quot;pln&quot; style=&quot;color: rgb(0 , 0 , 0)&quot;&gt; sqlSessionFactory&lt;/span&gt;&lt;span class=&quot;pun&quot; style=&quot;color: rgb(102 , 102 , 0)&quot;&gt;.&lt;/span&gt;&lt;span class=&quot;pln&quot; style=&quot;color: rgb(0 , 0 , 0)&quot;&gt;openSession&lt;/span&gt;&lt;span class=&quot;pun&quot; style=&quot;color: rgb(102 , 102 , 0)&quot;&gt;())&lt;/span&gt;&lt;span class=&quot;pln&quot; style=&quot;color: rgb(0 , 0 , 0)&quot;&gt; &lt;/span&gt;&lt;span class=&quot;pun&quot; style=&quot;color: rgb(102 , 102 , 0)&quot;&gt;{&lt;/span&gt;&lt;span class=&quot;pln&quot; style=&quot;color: rgb(0 , 0 , 0)&quot;&gt;&#xa;  &lt;/span&gt;&lt;span class=&quot;typ&quot; style=&quot;color: rgb(102 , 0 , 102)&quot;&gt;BlogMapper&lt;/span&gt;&lt;span class=&quot;pln&quot; style=&quot;color: rgb(0 , 0 , 0)&quot;&gt; mapper &lt;/span&gt;&lt;span class=&quot;pun&quot; style=&quot;color: rgb(102 , 102 , 0)&quot;&gt;=&lt;/span&gt;&lt;span class=&quot;pln&quot; style=&quot;color: rgb(0 , 0 , 0)&quot;&gt; session&lt;/span&gt;&lt;span class=&quot;pun&quot; style=&quot;color: rgb(102 , 102 , 0)&quot;&gt;.&lt;/span&gt;&lt;span class=&quot;pln&quot; style=&quot;color: rgb(0 , 0 , 0)&quot;&gt;getMapper&lt;/span&gt;&lt;span class=&quot;pun&quot; style=&quot;color: rgb(102 , 102 , 0)&quot;&gt;(&lt;/span&gt;&lt;span class=&quot;typ&quot; style=&quot;color: rgb(102 , 0 , 102)&quot;&gt;BlogMapper&lt;/span&gt;&lt;span class=&quot;pun&quot; style=&quot;color: rgb(102 , 102 , 0)&quot;&gt;.&lt;/span&gt;&lt;span class=&quot;kwd&quot; style=&quot;color: rgb(0 , 0 , 136)&quot;&gt;class&lt;/span&gt;&lt;span class=&quot;pun&quot; style=&quot;color: rgb(102 , 102 , 0)&quot;&gt;);&lt;/span&gt;&lt;span class=&quot;pln&quot; style=&quot;color: rgb(0 , 0 , 0)&quot;&gt;&#xa;  &lt;/span&gt;&lt;span class=&quot;typ&quot; style=&quot;color: rgb(102 , 0 , 102)&quot;&gt;Blog&lt;/span&gt;&lt;span class=&quot;pln&quot; style=&quot;color: rgb(0 , 0 , 0)&quot;&gt; blog &lt;/span&gt;&lt;span class=&quot;pun&quot; style=&quot;color: rgb(102 , 102 , 0)&quot;&gt;=&lt;/span&gt;&lt;span class=&quot;pln&quot; style=&quot;color: rgb(0 , 0 , 0)&quot;&gt; mapper&lt;/span&gt;&lt;span class=&quot;pun&quot; style=&quot;color: rgb(102 , 102 , 0)&quot;&gt;.&lt;/span&gt;&lt;span class=&quot;pln&quot; style=&quot;color: rgb(0 , 0 , 0)&quot;&gt;selectBlog&lt;/span&gt;&lt;span class=&quot;pun&quot; style=&quot;color: rgb(102 , 102 , 0)&quot;&gt;(&lt;/span&gt;&lt;span class=&quot;lit&quot; style=&quot;color: rgb(0 , 102 , 102)&quot;&gt;101&lt;/span&gt;&lt;span class=&quot;pun&quot; style=&quot;color: rgb(102 , 102 , 0)&quot;&gt;);&lt;/span&gt;&lt;span class=&quot;pln&quot; style=&quot;color: rgb(0 , 0 , 0)&quot;&gt;&#xa;&lt;/span&gt;&lt;span class=&quot;pun&quot; style=&quot;color: rgb(102 , 102 , 0)&quot;&gt;}&lt;/span&gt;&lt;/pre&gt;" style="text;whiteSpace=wrap;html=1;" vertex="1" parent="1">
          <mxGeometry x="530" y="990" width="480" height="100" as="geometry" />
        </mxCell>
        <mxCell id="y6wtNaFaqwbzHfmVruar-17" value="https://mybatis.org/mybatis-3/zh/getting-started.html" style="whiteSpace=wrap;html=1;rounded=0;" vertex="1" parent="1">
          <mxGeometry x="1080" y="230" width="325" height="60" as="geometry" />
        </mxCell>
        <mxCell id="y6wtNaFaqwbzHfmVruar-21" style="edgeStyle=none;rounded=0;orthogonalLoop=1;jettySize=auto;html=1;exitX=1;exitY=0.5;exitDx=0;exitDy=0;" edge="1" parent="1" source="y6wtNaFaqwbzHfmVruar-19" target="y6wtNaFaqwbzHfmVruar-20">
          <mxGeometry relative="1" as="geometry" />
        </mxCell>
        <mxCell id="y6wtNaFaqwbzHfmVruar-36" style="edgeStyle=none;rounded=0;orthogonalLoop=1;jettySize=auto;html=1;exitX=1;exitY=0.5;exitDx=0;exitDy=0;entryX=0;entryY=0.5;entryDx=0;entryDy=0;" edge="1" parent="1" source="y6wtNaFaqwbzHfmVruar-19" target="y6wtNaFaqwbzHfmVruar-33">
          <mxGeometry relative="1" as="geometry" />
        </mxCell>
        <mxCell id="y6wtNaFaqwbzHfmVruar-39" style="edgeStyle=none;rounded=0;orthogonalLoop=1;jettySize=auto;html=1;exitX=1;exitY=0.5;exitDx=0;exitDy=0;entryX=0;entryY=0.5;entryDx=0;entryDy=0;" edge="1" parent="1" source="y6wtNaFaqwbzHfmVruar-19" target="y6wtNaFaqwbzHfmVruar-38">
          <mxGeometry relative="1" as="geometry" />
        </mxCell>
        <mxCell id="y6wtNaFaqwbzHfmVruar-46" style="edgeStyle=none;rounded=0;orthogonalLoop=1;jettySize=auto;html=1;exitX=1;exitY=0.5;exitDx=0;exitDy=0;entryX=0;entryY=0.5;entryDx=0;entryDy=0;" edge="1" parent="1" source="y6wtNaFaqwbzHfmVruar-19" target="y6wtNaFaqwbzHfmVruar-47">
          <mxGeometry relative="1" as="geometry">
            <mxPoint x="410" y="1160" as="targetPoint" />
          </mxGeometry>
        </mxCell>
        <mxCell id="y6wtNaFaqwbzHfmVruar-49" style="edgeStyle=none;rounded=0;orthogonalLoop=1;jettySize=auto;html=1;exitX=1;exitY=0.5;exitDx=0;exitDy=0;entryX=0;entryY=0.5;entryDx=0;entryDy=0;" edge="1" parent="1" source="y6wtNaFaqwbzHfmVruar-19" target="y6wtNaFaqwbzHfmVruar-48">
          <mxGeometry relative="1" as="geometry" />
        </mxCell>
        <mxCell id="y6wtNaFaqwbzHfmVruar-66" style="edgeStyle=none;rounded=0;orthogonalLoop=1;jettySize=auto;html=1;exitX=1;exitY=0.5;exitDx=0;exitDy=0;entryX=0;entryY=0.5;entryDx=0;entryDy=0;" edge="1" parent="1" source="y6wtNaFaqwbzHfmVruar-19" target="y6wtNaFaqwbzHfmVruar-65">
          <mxGeometry relative="1" as="geometry" />
        </mxCell>
        <mxCell id="y6wtNaFaqwbzHfmVruar-75" style="edgeStyle=none;rounded=0;orthogonalLoop=1;jettySize=auto;html=1;exitX=1;exitY=0.5;exitDx=0;exitDy=0;entryX=0;entryY=0.5;entryDx=0;entryDy=0;" edge="1" parent="1" source="y6wtNaFaqwbzHfmVruar-19" target="y6wtNaFaqwbzHfmVruar-74">
          <mxGeometry relative="1" as="geometry" />
        </mxCell>
        <mxCell id="y6wtNaFaqwbzHfmVruar-19" value="xml 配置" style="rounded=0;whiteSpace=wrap;html=1;" vertex="1" parent="1">
          <mxGeometry x="210" y="1200" width="120" height="60" as="geometry" />
        </mxCell>
        <mxCell id="y6wtNaFaqwbzHfmVruar-23" style="edgeStyle=none;rounded=0;orthogonalLoop=1;jettySize=auto;html=1;exitX=1;exitY=0.5;exitDx=0;exitDy=0;entryX=0;entryY=0.5;entryDx=0;entryDy=0;" edge="1" parent="1" source="y6wtNaFaqwbzHfmVruar-20" target="y6wtNaFaqwbzHfmVruar-22">
          <mxGeometry relative="1" as="geometry" />
        </mxCell>
        <mxCell id="y6wtNaFaqwbzHfmVruar-20" value="properties 标签" style="rounded=0;whiteSpace=wrap;html=1;" vertex="1" parent="1">
          <mxGeometry x="480" y="1200" width="120" height="60" as="geometry" />
        </mxCell>
        <mxCell id="y6wtNaFaqwbzHfmVruar-25" style="edgeStyle=none;rounded=0;orthogonalLoop=1;jettySize=auto;html=1;exitX=1;exitY=0.5;exitDx=0;exitDy=0;entryX=0;entryY=0.5;entryDx=0;entryDy=0;" edge="1" parent="1" source="y6wtNaFaqwbzHfmVruar-22" target="y6wtNaFaqwbzHfmVruar-24">
          <mxGeometry relative="1" as="geometry" />
        </mxCell>
        <mxCell id="y6wtNaFaqwbzHfmVruar-27" style="edgeStyle=none;rounded=0;orthogonalLoop=1;jettySize=auto;html=1;exitX=1;exitY=0.5;exitDx=0;exitDy=0;entryX=0;entryY=0.571;entryDx=0;entryDy=0;entryPerimeter=0;" edge="1" parent="1" source="y6wtNaFaqwbzHfmVruar-22" target="y6wtNaFaqwbzHfmVruar-26">
          <mxGeometry relative="1" as="geometry" />
        </mxCell>
        <mxCell id="y6wtNaFaqwbzHfmVruar-22" value="在外部进行属性的配置，在整个配置文件中进行动态替换" style="rounded=0;whiteSpace=wrap;html=1;" vertex="1" parent="1">
          <mxGeometry x="710" y="1200" width="210" height="60" as="geometry" />
        </mxCell>
        <mxCell id="y6wtNaFaqwbzHfmVruar-30" style="edgeStyle=none;rounded=0;orthogonalLoop=1;jettySize=auto;html=1;exitX=1;exitY=0.5;exitDx=0;exitDy=0;entryX=0;entryY=0.5;entryDx=0;entryDy=0;" edge="1" parent="1" source="y6wtNaFaqwbzHfmVruar-24" target="y6wtNaFaqwbzHfmVruar-28">
          <mxGeometry relative="1" as="geometry" />
        </mxCell>
        <mxCell id="y6wtNaFaqwbzHfmVruar-24" value="&lt;meta charset=&quot;utf-8&quot;&gt;&lt;pre class=&quot;prettyprint&quot; style=&quot;padding: 2px; font-family: monaco, menlo, consolas, &amp;quot;courier new&amp;quot;, monospace; font-size: 13px; color: rgb(51, 51, 51); border-radius: 4px; display: block; margin: 0px 0px 20px; line-height: 20px; word-break: break-all; overflow-wrap: break-word; background-color: rgb(245, 245, 245); border: 1px solid rgb(136, 136, 136); font-style: normal; font-weight: 400; letter-spacing: normal; text-indent: 0px; text-transform: none; word-spacing: 0px;&quot;&gt;&lt;span class=&quot;tag&quot; style=&quot;color: rgb(0 , 0 , 136)&quot;&gt;&amp;lt;properties&lt;/span&gt;&lt;span class=&quot;pln&quot; style=&quot;color: rgb(0 , 0 , 0)&quot;&gt; &lt;/span&gt;&lt;span class=&quot;atn&quot; style=&quot;color: rgb(102 , 0 , 102)&quot;&gt;resource&lt;/span&gt;&lt;span class=&quot;pun&quot; style=&quot;color: rgb(102 , 102 , 0)&quot;&gt;=&lt;/span&gt;&lt;span class=&quot;atv&quot; style=&quot;color: rgb(0 , 136 , 0)&quot;&gt;&quot;org/mybatis/example/config.properties&quot;&lt;/span&gt;&lt;span class=&quot;tag&quot; style=&quot;color: rgb(0 , 0 , 136)&quot;&gt;&amp;gt;&lt;/span&gt;&lt;span class=&quot;pln&quot; style=&quot;color: rgb(0 , 0 , 0)&quot;&gt;&#xa;  &lt;/span&gt;&lt;span class=&quot;tag&quot; style=&quot;color: rgb(0 , 0 , 136)&quot;&gt;&amp;lt;property&lt;/span&gt;&lt;span class=&quot;pln&quot; style=&quot;color: rgb(0 , 0 , 0)&quot;&gt; &lt;/span&gt;&lt;span class=&quot;atn&quot; style=&quot;color: rgb(102 , 0 , 102)&quot;&gt;name&lt;/span&gt;&lt;span class=&quot;pun&quot; style=&quot;color: rgb(102 , 102 , 0)&quot;&gt;=&lt;/span&gt;&lt;span class=&quot;atv&quot; style=&quot;color: rgb(0 , 136 , 0)&quot;&gt;&quot;username&quot;&lt;/span&gt;&lt;span class=&quot;pln&quot; style=&quot;color: rgb(0 , 0 , 0)&quot;&gt; &lt;/span&gt;&lt;span class=&quot;atn&quot; style=&quot;color: rgb(102 , 0 , 102)&quot;&gt;value&lt;/span&gt;&lt;span class=&quot;pun&quot; style=&quot;color: rgb(102 , 102 , 0)&quot;&gt;=&lt;/span&gt;&lt;span class=&quot;atv&quot; style=&quot;color: rgb(0 , 136 , 0)&quot;&gt;&quot;dev_user&quot;&lt;/span&gt;&lt;span class=&quot;tag&quot; style=&quot;color: rgb(0 , 0 , 136)&quot;&gt;/&amp;gt;&lt;/span&gt;&lt;span class=&quot;pln&quot; style=&quot;color: rgb(0 , 0 , 0)&quot;&gt;&#xa;  &lt;/span&gt;&lt;span class=&quot;tag&quot; style=&quot;color: rgb(0 , 0 , 136)&quot;&gt;&amp;lt;property&lt;/span&gt;&lt;span class=&quot;pln&quot; style=&quot;color: rgb(0 , 0 , 0)&quot;&gt; &lt;/span&gt;&lt;span class=&quot;atn&quot; style=&quot;color: rgb(102 , 0 , 102)&quot;&gt;name&lt;/span&gt;&lt;span class=&quot;pun&quot; style=&quot;color: rgb(102 , 102 , 0)&quot;&gt;=&lt;/span&gt;&lt;span class=&quot;atv&quot; style=&quot;color: rgb(0 , 136 , 0)&quot;&gt;&quot;password&quot;&lt;/span&gt;&lt;span class=&quot;pln&quot; style=&quot;color: rgb(0 , 0 , 0)&quot;&gt; &lt;/span&gt;&lt;span class=&quot;atn&quot; style=&quot;color: rgb(102 , 0 , 102)&quot;&gt;value&lt;/span&gt;&lt;span class=&quot;pun&quot; style=&quot;color: rgb(102 , 102 , 0)&quot;&gt;=&lt;/span&gt;&lt;span class=&quot;atv&quot; style=&quot;color: rgb(0 , 136 , 0)&quot;&gt;&quot;F2Fa3!33TYyg&quot;&lt;/span&gt;&lt;span class=&quot;tag&quot; style=&quot;color: rgb(0 , 0 , 136)&quot;&gt;/&amp;gt;&lt;/span&gt;&lt;span class=&quot;pln&quot; style=&quot;color: rgb(0 , 0 , 0)&quot;&gt;&#xa;&lt;/span&gt;&lt;span class=&quot;tag&quot; style=&quot;color: rgb(0 , 0 , 136)&quot;&gt;&amp;lt;/properties&amp;gt;&lt;/span&gt;&lt;/pre&gt;" style="text;whiteSpace=wrap;html=1;" vertex="1" parent="1">
          <mxGeometry x="1010" y="1120" width="490" height="100" as="geometry" />
        </mxCell>
        <mxCell id="y6wtNaFaqwbzHfmVruar-26" value="&lt;meta charset=&quot;utf-8&quot;&gt;&lt;pre class=&quot;prettyprint&quot; style=&quot;padding: 2px; font-family: monaco, menlo, consolas, &amp;quot;courier new&amp;quot;, monospace; font-size: 13px; color: rgb(51, 51, 51); border-radius: 4px; display: block; margin: 0px 0px 20px; line-height: 20px; word-break: break-all; overflow-wrap: break-word; background-color: rgb(245, 245, 245); border: 1px solid rgb(136, 136, 136); font-style: normal; font-weight: 400; letter-spacing: normal; text-indent: 0px; text-transform: none; word-spacing: 0px;&quot;&gt;&lt;span class=&quot;tag&quot; style=&quot;color: rgb(0 , 0 , 136)&quot;&gt;&amp;lt;dataSource&lt;/span&gt;&lt;span class=&quot;pln&quot; style=&quot;color: rgb(0 , 0 , 0)&quot;&gt; &lt;/span&gt;&lt;span class=&quot;atn&quot; style=&quot;color: rgb(102 , 0 , 102)&quot;&gt;type&lt;/span&gt;&lt;span class=&quot;pun&quot; style=&quot;color: rgb(102 , 102 , 0)&quot;&gt;=&lt;/span&gt;&lt;span class=&quot;atv&quot; style=&quot;color: rgb(0 , 136 , 0)&quot;&gt;&quot;POOLED&quot;&lt;/span&gt;&lt;span class=&quot;tag&quot; style=&quot;color: rgb(0 , 0 , 136)&quot;&gt;&amp;gt;&lt;/span&gt;&lt;span class=&quot;pln&quot; style=&quot;color: rgb(0 , 0 , 0)&quot;&gt;&#xa;  &lt;/span&gt;&lt;span class=&quot;tag&quot; style=&quot;color: rgb(0 , 0 , 136)&quot;&gt;&amp;lt;property&lt;/span&gt;&lt;span class=&quot;pln&quot; style=&quot;color: rgb(0 , 0 , 0)&quot;&gt; &lt;/span&gt;&lt;span class=&quot;atn&quot; style=&quot;color: rgb(102 , 0 , 102)&quot;&gt;name&lt;/span&gt;&lt;span class=&quot;pun&quot; style=&quot;color: rgb(102 , 102 , 0)&quot;&gt;=&lt;/span&gt;&lt;span class=&quot;atv&quot; style=&quot;color: rgb(0 , 136 , 0)&quot;&gt;&quot;driver&quot;&lt;/span&gt;&lt;span class=&quot;pln&quot; style=&quot;color: rgb(0 , 0 , 0)&quot;&gt; &lt;/span&gt;&lt;span class=&quot;atn&quot; style=&quot;color: rgb(102 , 0 , 102)&quot;&gt;value&lt;/span&gt;&lt;span class=&quot;pun&quot; style=&quot;color: rgb(102 , 102 , 0)&quot;&gt;=&lt;/span&gt;&lt;span class=&quot;atv&quot; style=&quot;color: rgb(0 , 136 , 0)&quot;&gt;&quot;${driver}&quot;&lt;/span&gt;&lt;span class=&quot;tag&quot; style=&quot;color: rgb(0 , 0 , 136)&quot;&gt;/&amp;gt;&lt;/span&gt;&lt;span class=&quot;pln&quot; style=&quot;color: rgb(0 , 0 , 0)&quot;&gt;&#xa;  &lt;/span&gt;&lt;span class=&quot;tag&quot; style=&quot;color: rgb(0 , 0 , 136)&quot;&gt;&amp;lt;property&lt;/span&gt;&lt;span class=&quot;pln&quot; style=&quot;color: rgb(0 , 0 , 0)&quot;&gt; &lt;/span&gt;&lt;span class=&quot;atn&quot; style=&quot;color: rgb(102 , 0 , 102)&quot;&gt;name&lt;/span&gt;&lt;span class=&quot;pun&quot; style=&quot;color: rgb(102 , 102 , 0)&quot;&gt;=&lt;/span&gt;&lt;span class=&quot;atv&quot; style=&quot;color: rgb(0 , 136 , 0)&quot;&gt;&quot;url&quot;&lt;/span&gt;&lt;span class=&quot;pln&quot; style=&quot;color: rgb(0 , 0 , 0)&quot;&gt; &lt;/span&gt;&lt;span class=&quot;atn&quot; style=&quot;color: rgb(102 , 0 , 102)&quot;&gt;value&lt;/span&gt;&lt;span class=&quot;pun&quot; style=&quot;color: rgb(102 , 102 , 0)&quot;&gt;=&lt;/span&gt;&lt;span class=&quot;atv&quot; style=&quot;color: rgb(0 , 136 , 0)&quot;&gt;&quot;${url}&quot;&lt;/span&gt;&lt;span class=&quot;tag&quot; style=&quot;color: rgb(0 , 0 , 136)&quot;&gt;/&amp;gt;&lt;/span&gt;&lt;span class=&quot;pln&quot; style=&quot;color: rgb(0 , 0 , 0)&quot;&gt;&#xa;  &lt;/span&gt;&lt;span class=&quot;tag&quot; style=&quot;color: rgb(0 , 0 , 136)&quot;&gt;&amp;lt;property&lt;/span&gt;&lt;span class=&quot;pln&quot; style=&quot;color: rgb(0 , 0 , 0)&quot;&gt; &lt;/span&gt;&lt;span class=&quot;atn&quot; style=&quot;color: rgb(102 , 0 , 102)&quot;&gt;name&lt;/span&gt;&lt;span class=&quot;pun&quot; style=&quot;color: rgb(102 , 102 , 0)&quot;&gt;=&lt;/span&gt;&lt;span class=&quot;atv&quot; style=&quot;color: rgb(0 , 136 , 0)&quot;&gt;&quot;username&quot;&lt;/span&gt;&lt;span class=&quot;pln&quot; style=&quot;color: rgb(0 , 0 , 0)&quot;&gt; &lt;/span&gt;&lt;span class=&quot;atn&quot; style=&quot;color: rgb(102 , 0 , 102)&quot;&gt;value&lt;/span&gt;&lt;span class=&quot;pun&quot; style=&quot;color: rgb(102 , 102 , 0)&quot;&gt;=&lt;/span&gt;&lt;span class=&quot;atv&quot; style=&quot;color: rgb(0 , 136 , 0)&quot;&gt;&quot;${username}&quot;&lt;/span&gt;&lt;span class=&quot;tag&quot; style=&quot;color: rgb(0 , 0 , 136)&quot;&gt;/&amp;gt;&lt;/span&gt;&lt;span class=&quot;pln&quot; style=&quot;color: rgb(0 , 0 , 0)&quot;&gt;&#xa;  &lt;/span&gt;&lt;span class=&quot;tag&quot; style=&quot;color: rgb(0 , 0 , 136)&quot;&gt;&amp;lt;property&lt;/span&gt;&lt;span class=&quot;pln&quot; style=&quot;color: rgb(0 , 0 , 0)&quot;&gt; &lt;/span&gt;&lt;span class=&quot;atn&quot; style=&quot;color: rgb(102 , 0 , 102)&quot;&gt;name&lt;/span&gt;&lt;span class=&quot;pun&quot; style=&quot;color: rgb(102 , 102 , 0)&quot;&gt;=&lt;/span&gt;&lt;span class=&quot;atv&quot; style=&quot;color: rgb(0 , 136 , 0)&quot;&gt;&quot;password&quot;&lt;/span&gt;&lt;span class=&quot;pln&quot; style=&quot;color: rgb(0 , 0 , 0)&quot;&gt; &lt;/span&gt;&lt;span class=&quot;atn&quot; style=&quot;color: rgb(102 , 0 , 102)&quot;&gt;value&lt;/span&gt;&lt;span class=&quot;pun&quot; style=&quot;color: rgb(102 , 102 , 0)&quot;&gt;=&lt;/span&gt;&lt;span class=&quot;atv&quot; style=&quot;color: rgb(0 , 136 , 0)&quot;&gt;&quot;${password}&quot;&lt;/span&gt;&lt;span class=&quot;tag&quot; style=&quot;color: rgb(0 , 0 , 136)&quot;&gt;/&amp;gt;&lt;/span&gt;&lt;span class=&quot;pln&quot; style=&quot;color: rgb(0 , 0 , 0)&quot;&gt;&#xa;&lt;/span&gt;&lt;span class=&quot;tag&quot; style=&quot;color: rgb(0 , 0 , 136)&quot;&gt;&amp;lt;/dataSource&amp;gt;&lt;/span&gt;&lt;/pre&gt;" style="text;whiteSpace=wrap;html=1;" vertex="1" parent="1">
          <mxGeometry x="1010" y="1230" width="400" height="140" as="geometry" />
        </mxCell>
        <mxCell id="y6wtNaFaqwbzHfmVruar-28" value="如果一个属性在不同的地方都进行了配置，那么加载顺序为：&lt;br&gt;&lt;ol&gt;&lt;li&gt;properties 元素体内指定的属性&lt;/li&gt;&lt;li&gt;properties 元素中的 resource 属性读取类路径下的属性文件（或 url 指定的配置文件）&lt;/li&gt;&lt;li&gt;最后读取作为方法参数传递的属性，并覆盖之前读取过得的同名属性&lt;/li&gt;&lt;/ol&gt;" style="rounded=0;whiteSpace=wrap;html=1;" vertex="1" parent="1">
          <mxGeometry x="1610" y="1115" width="500" height="110" as="geometry" />
        </mxCell>
        <mxCell id="y6wtNaFaqwbzHfmVruar-31" value="&lt;meta charset=&quot;utf-8&quot;&gt;&lt;table border=&quot;0&quot; class=&quot;table table-striped&quot; style=&quot;max-width: 100%; background-color: rgb(255, 255, 255); border-collapse: collapse; border-spacing: 0px; width: 1289px; margin-bottom: 20px; color: rgb(51, 51, 51); font-family: &amp;quot;helvetica neue&amp;quot;, helvetica, arial, sans-serif; font-size: 14px; font-style: normal; font-weight: 400; letter-spacing: normal; text-transform: none; word-spacing: 0px;&quot;&gt;&lt;thead&gt;&lt;tr class=&quot;a&quot;&gt;&lt;th style=&quot;padding: 8px ; line-height: 20px ; text-align: left ; vertical-align: bottom ; border-top: 0px ; font-weight: bold&quot;&gt;设置名&lt;/th&gt;&lt;th style=&quot;padding: 8px ; line-height: 20px ; text-align: left ; vertical-align: bottom ; border-top: 0px ; font-weight: bold&quot;&gt;描述&lt;/th&gt;&lt;th style=&quot;padding: 8px ; line-height: 20px ; text-align: left ; vertical-align: bottom ; border-top: 0px ; font-weight: bold&quot;&gt;有效值&lt;/th&gt;&lt;th style=&quot;padding: 8px ; line-height: 20px ; text-align: left ; vertical-align: bottom ; border-top: 0px ; font-weight: bold&quot;&gt;默认值&lt;/th&gt;&lt;/tr&gt;&lt;/thead&gt;&lt;tbody&gt;&lt;tr class=&quot;b&quot;&gt;&lt;td style=&quot;padding: 8px ; line-height: 20px ; text-align: left ; vertical-align: top ; border-top: 1px solid rgb(221 , 221 , 221) ; background-color: rgb(249 , 249 , 249)&quot;&gt;cacheEnabled&lt;/td&gt;&lt;td style=&quot;padding: 8px ; line-height: 20px ; text-align: left ; vertical-align: top ; border-top: 1px solid rgb(221 , 221 , 221) ; background-color: rgb(249 , 249 , 249)&quot;&gt;全局性地开启或关闭所有映射器配置文件中已配置的任何缓存。&lt;/td&gt;&lt;td style=&quot;padding: 8px ; line-height: 20px ; text-align: left ; vertical-align: top ; border-top: 1px solid rgb(221 , 221 , 221) ; background-color: rgb(249 , 249 , 249)&quot;&gt;true | false&lt;/td&gt;&lt;td style=&quot;padding: 8px ; line-height: 20px ; text-align: left ; vertical-align: top ; border-top: 1px solid rgb(221 , 221 , 221) ; background-color: rgb(249 , 249 , 249)&quot;&gt;true&lt;/td&gt;&lt;/tr&gt;&lt;tr class=&quot;a&quot;&gt;&lt;td style=&quot;padding: 8px ; line-height: 20px ; text-align: left ; vertical-align: top ; border-top: 1px solid rgb(221 , 221 , 221)&quot;&gt;lazyLoadingEnabled&lt;/td&gt;&lt;td style=&quot;padding: 8px ; line-height: 20px ; text-align: left ; vertical-align: top ; border-top: 1px solid rgb(221 , 221 , 221)&quot;&gt;延迟加载的全局开关。当开启时，所有关联对象都会延迟加载。 特定关联关系中可通过设置&lt;span&gt;&amp;nbsp;&lt;/span&gt;&lt;code style=&quot;padding: 2px 4px; font-family: monaco, menlo, consolas, &amp;quot;courier new&amp;quot;, monospace; font-size: 12px; color: rgb(221, 17, 68); border-radius: 3px; background-color: rgb(247, 247, 249); border: 1px solid rgb(225, 225, 232);&quot;&gt;fetchType&lt;/code&gt;&lt;span&gt;&amp;nbsp;&lt;/span&gt;属性来覆盖该项的开关状态。&lt;/td&gt;&lt;td style=&quot;padding: 8px ; line-height: 20px ; text-align: left ; vertical-align: top ; border-top: 1px solid rgb(221 , 221 , 221)&quot;&gt;true | false&lt;/td&gt;&lt;td style=&quot;padding: 8px ; line-height: 20px ; text-align: left ; vertical-align: top ; border-top: 1px solid rgb(221 , 221 , 221)&quot;&gt;false&lt;/td&gt;&lt;/tr&gt;&lt;tr class=&quot;b&quot;&gt;&lt;td style=&quot;padding: 8px ; line-height: 20px ; text-align: left ; vertical-align: top ; border-top: 1px solid rgb(221 , 221 , 221) ; background-color: rgb(249 , 249 , 249)&quot;&gt;aggressiveLazyLoading&lt;/td&gt;&lt;td style=&quot;padding: 8px ; line-height: 20px ; text-align: left ; vertical-align: top ; border-top: 1px solid rgb(221 , 221 , 221) ; background-color: rgb(249 , 249 , 249)&quot;&gt;开启时，任一方法的调用都会加载该对象的所有延迟加载属性。 否则，每个延迟加载属性会按需加载（参考&lt;span&gt;&amp;nbsp;&lt;/span&gt;&lt;code style=&quot;padding: 2px 4px; font-family: monaco, menlo, consolas, &amp;quot;courier new&amp;quot;, monospace; font-size: 12px; color: rgb(221, 17, 68); border-radius: 3px; background-color: rgb(247, 247, 249); border: 1px solid rgb(225, 225, 232);&quot;&gt;lazyLoadTriggerMethods&lt;/code&gt;)。&lt;/td&gt;&lt;td style=&quot;padding: 8px ; line-height: 20px ; text-align: left ; vertical-align: top ; border-top: 1px solid rgb(221 , 221 , 221) ; background-color: rgb(249 , 249 , 249)&quot;&gt;true | false&lt;/td&gt;&lt;td style=&quot;padding: 8px ; line-height: 20px ; text-align: left ; vertical-align: top ; border-top: 1px solid rgb(221 , 221 , 221) ; background-color: rgb(249 , 249 , 249)&quot;&gt;false （在 3.4.1 及之前的版本中默认为 true）&lt;/td&gt;&lt;/tr&gt;&lt;tr class=&quot;a&quot;&gt;&lt;td style=&quot;padding: 8px ; line-height: 20px ; text-align: left ; vertical-align: top ; border-top: 1px solid rgb(221 , 221 , 221)&quot;&gt;multipleResultSetsEnabled&lt;/td&gt;&lt;td style=&quot;padding: 8px ; line-height: 20px ; text-align: left ; vertical-align: top ; border-top: 1px solid rgb(221 , 221 , 221)&quot;&gt;是否允许单个语句返回多结果集（需要数据库驱动支持）。&lt;/td&gt;&lt;td style=&quot;padding: 8px ; line-height: 20px ; text-align: left ; vertical-align: top ; border-top: 1px solid rgb(221 , 221 , 221)&quot;&gt;true | false&lt;/td&gt;&lt;td style=&quot;padding: 8px ; line-height: 20px ; text-align: left ; vertical-align: top ; border-top: 1px solid rgb(221 , 221 , 221)&quot;&gt;true&lt;/td&gt;&lt;/tr&gt;&lt;tr class=&quot;b&quot;&gt;&lt;td style=&quot;padding: 8px ; line-height: 20px ; text-align: left ; vertical-align: top ; border-top: 1px solid rgb(221 , 221 , 221) ; background-color: rgb(249 , 249 , 249)&quot;&gt;useColumnLabel&lt;/td&gt;&lt;td style=&quot;padding: 8px ; line-height: 20px ; text-align: left ; vertical-align: top ; border-top: 1px solid rgb(221 , 221 , 221) ; background-color: rgb(249 , 249 , 249)&quot;&gt;使用列标签代替列名。实际表现依赖于数据库驱动，具体可参考数据库驱动的相关文档，或通过对比测试来观察。&lt;/td&gt;&lt;td style=&quot;padding: 8px ; line-height: 20px ; text-align: left ; vertical-align: top ; border-top: 1px solid rgb(221 , 221 , 221) ; background-color: rgb(249 , 249 , 249)&quot;&gt;true | false&lt;/td&gt;&lt;td style=&quot;padding: 8px ; line-height: 20px ; text-align: left ; vertical-align: top ; border-top: 1px solid rgb(221 , 221 , 221) ; background-color: rgb(249 , 249 , 249)&quot;&gt;true&lt;/td&gt;&lt;/tr&gt;&lt;tr class=&quot;a&quot;&gt;&lt;td style=&quot;padding: 8px ; line-height: 20px ; text-align: left ; vertical-align: top ; border-top: 1px solid rgb(221 , 221 , 221)&quot;&gt;useGeneratedKeys&lt;/td&gt;&lt;td style=&quot;padding: 8px ; line-height: 20px ; text-align: left ; vertical-align: top ; border-top: 1px solid rgb(221 , 221 , 221)&quot;&gt;允许 JDBC 支持自动生成主键，需要数据库驱动支持。如果设置为 true，将强制使用自动生成主键。尽管一些数据库驱动不支持此特性，但仍可正常工作（如 Derby）。&lt;/td&gt;&lt;td style=&quot;padding: 8px ; line-height: 20px ; text-align: left ; vertical-align: top ; border-top: 1px solid rgb(221 , 221 , 221)&quot;&gt;true | false&lt;/td&gt;&lt;td style=&quot;padding: 8px ; line-height: 20px ; text-align: left ; vertical-align: top ; border-top: 1px solid rgb(221 , 221 , 221)&quot;&gt;False&lt;/td&gt;&lt;/tr&gt;&lt;tr class=&quot;b&quot;&gt;&lt;td style=&quot;padding: 8px ; line-height: 20px ; text-align: left ; vertical-align: top ; border-top: 1px solid rgb(221 , 221 , 221) ; background-color: rgb(249 , 249 , 249)&quot;&gt;autoMappingBehavior&lt;/td&gt;&lt;td style=&quot;padding: 8px ; line-height: 20px ; text-align: left ; vertical-align: top ; border-top: 1px solid rgb(221 , 221 , 221) ; background-color: rgb(249 , 249 , 249)&quot;&gt;指定 MyBatis 应如何自动映射列到字段或属性。 NONE 表示关闭自动映射；PARTIAL 只会自动映射没有定义嵌套结果映射的字段。 FULL 会自动映射任何复杂的结果集（无论是否嵌套）。&lt;/td&gt;&lt;td style=&quot;padding: 8px ; line-height: 20px ; text-align: left ; vertical-align: top ; border-top: 1px solid rgb(221 , 221 , 221) ; background-color: rgb(249 , 249 , 249)&quot;&gt;NONE, PARTIAL, FULL&lt;/td&gt;&lt;td style=&quot;padding: 8px ; line-height: 20px ; text-align: left ; vertical-align: top ; border-top: 1px solid rgb(221 , 221 , 221) ; background-color: rgb(249 , 249 , 249)&quot;&gt;PARTIAL&lt;/td&gt;&lt;/tr&gt;&lt;tr class=&quot;a&quot;&gt;&lt;td style=&quot;padding: 8px ; line-height: 20px ; text-align: left ; vertical-align: top ; border-top: 1px solid rgb(221 , 221 , 221)&quot;&gt;autoMappingUnknownColumnBehavior&lt;/td&gt;&lt;td style=&quot;padding: 8px ; line-height: 20px ; text-align: left ; vertical-align: top ; border-top: 1px solid rgb(221 , 221 , 221)&quot;&gt;指定发现自动映射目标未知列（或未知属性类型）的行为。&lt;ul style=&quot;padding: 0px ; margin: 0px 0px 10px 25px&quot;&gt;&lt;li style=&quot;line-height: 20px ; color: rgb(64 , 64 , 64)&quot;&gt;&lt;code style=&quot;padding: 2px 4px; font-family: monaco, menlo, consolas, &amp;quot;courier new&amp;quot;, monospace; font-size: 12px; color: rgb(221, 17, 68); border-radius: 3px; background-color: rgb(247, 247, 249); border: 1px solid rgb(225, 225, 232);&quot;&gt;NONE&lt;/code&gt;: 不做任何反应&lt;/li&gt;&lt;li style=&quot;line-height: 20px ; color: rgb(64 , 64 , 64)&quot;&gt;&lt;code style=&quot;padding: 2px 4px; font-family: monaco, menlo, consolas, &amp;quot;courier new&amp;quot;, monospace; font-size: 12px; color: rgb(221, 17, 68); border-radius: 3px; background-color: rgb(247, 247, 249); border: 1px solid rgb(225, 225, 232);&quot;&gt;WARNING&lt;/code&gt;: 输出警告日志（&lt;code style=&quot;padding: 2px 4px; font-family: monaco, menlo, consolas, &amp;quot;courier new&amp;quot;, monospace; font-size: 12px; color: rgb(221, 17, 68); border-radius: 3px; background-color: rgb(247, 247, 249); border: 1px solid rgb(225, 225, 232);&quot;&gt;&#39;org.apache.ibatis.session.AutoMappingUnknownColumnBehavior&#39;&lt;/code&gt;&lt;span&gt;&amp;nbsp;&lt;/span&gt;的日志等级必须设置为&lt;span&gt;&amp;nbsp;&lt;/span&gt;&lt;code style=&quot;padding: 2px 4px; font-family: monaco, menlo, consolas, &amp;quot;courier new&amp;quot;, monospace; font-size: 12px; color: rgb(221, 17, 68); border-radius: 3px; background-color: rgb(247, 247, 249); border: 1px solid rgb(225, 225, 232);&quot;&gt;WARN&lt;/code&gt;）&lt;/li&gt;&lt;li style=&quot;line-height: 20px ; color: rgb(64 , 64 , 64)&quot;&gt;&lt;code style=&quot;padding: 2px 4px; font-family: monaco, menlo, consolas, &amp;quot;courier new&amp;quot;, monospace; font-size: 12px; color: rgb(221, 17, 68); border-radius: 3px; background-color: rgb(247, 247, 249); border: 1px solid rgb(225, 225, 232);&quot;&gt;FAILING&lt;/code&gt;: 映射失败 (抛出&lt;span&gt;&amp;nbsp;&lt;/span&gt;&lt;code style=&quot;padding: 2px 4px; font-family: monaco, menlo, consolas, &amp;quot;courier new&amp;quot;, monospace; font-size: 12px; color: rgb(221, 17, 68); border-radius: 3px; background-color: rgb(247, 247, 249); border: 1px solid rgb(225, 225, 232);&quot;&gt;SqlSessionException&lt;/code&gt;)&lt;/li&gt;&lt;/ul&gt;&lt;/td&gt;&lt;td style=&quot;padding: 8px ; line-height: 20px ; text-align: left ; vertical-align: top ; border-top: 1px solid rgb(221 , 221 , 221)&quot;&gt;NONE, WARNING, FAILING&lt;/td&gt;&lt;td style=&quot;padding: 8px ; line-height: 20px ; text-align: left ; vertical-align: top ; border-top: 1px solid rgb(221 , 221 , 221)&quot;&gt;NONE&lt;/td&gt;&lt;/tr&gt;&lt;tr class=&quot;b&quot;&gt;&lt;td style=&quot;padding: 8px ; line-height: 20px ; text-align: left ; vertical-align: top ; border-top: 1px solid rgb(221 , 221 , 221) ; background-color: rgb(249 , 249 , 249)&quot;&gt;defaultExecutorType&lt;/td&gt;&lt;td style=&quot;padding: 8px ; line-height: 20px ; text-align: left ; vertical-align: top ; border-top: 1px solid rgb(221 , 221 , 221) ; background-color: rgb(249 , 249 , 249)&quot;&gt;配置默认的执行器。SIMPLE 就是普通的执行器；REUSE 执行器会重用预处理语句（PreparedStatement）； BATCH 执行器不仅重用语句还会执行批量更新。&lt;/td&gt;&lt;td style=&quot;padding: 8px ; line-height: 20px ; text-align: left ; vertical-align: top ; border-top: 1px solid rgb(221 , 221 , 221) ; background-color: rgb(249 , 249 , 249)&quot;&gt;SIMPLE REUSE BATCH&lt;/td&gt;&lt;td style=&quot;padding: 8px ; line-height: 20px ; text-align: left ; vertical-align: top ; border-top: 1px solid rgb(221 , 221 , 221) ; background-color: rgb(249 , 249 , 249)&quot;&gt;SIMPLE&lt;/td&gt;&lt;/tr&gt;&lt;tr class=&quot;a&quot;&gt;&lt;td style=&quot;padding: 8px ; line-height: 20px ; text-align: left ; vertical-align: top ; border-top: 1px solid rgb(221 , 221 , 221)&quot;&gt;defaultStatementTimeout&lt;/td&gt;&lt;td style=&quot;padding: 8px ; line-height: 20px ; text-align: left ; vertical-align: top ; border-top: 1px solid rgb(221 , 221 , 221)&quot;&gt;设置超时时间，它决定数据库驱动等待数据库响应的秒数。&lt;/td&gt;&lt;td style=&quot;padding: 8px ; line-height: 20px ; text-align: left ; vertical-align: top ; border-top: 1px solid rgb(221 , 221 , 221)&quot;&gt;任意正整数&lt;/td&gt;&lt;td style=&quot;padding: 8px ; line-height: 20px ; text-align: left ; vertical-align: top ; border-top: 1px solid rgb(221 , 221 , 221)&quot;&gt;未设置 (null)&lt;/td&gt;&lt;/tr&gt;&lt;tr class=&quot;b&quot;&gt;&lt;td style=&quot;padding: 8px ; line-height: 20px ; text-align: left ; vertical-align: top ; border-top: 1px solid rgb(221 , 221 , 221) ; background-color: rgb(249 , 249 , 249)&quot;&gt;defaultFetchSize&lt;/td&gt;&lt;td style=&quot;padding: 8px ; line-height: 20px ; text-align: left ; vertical-align: top ; border-top: 1px solid rgb(221 , 221 , 221) ; background-color: rgb(249 , 249 , 249)&quot;&gt;为驱动的结果集获取数量（fetchSize）设置一个建议值。此参数只可以在查询设置中被覆盖。&lt;/td&gt;&lt;td style=&quot;padding: 8px ; line-height: 20px ; text-align: left ; vertical-align: top ; border-top: 1px solid rgb(221 , 221 , 221) ; background-color: rgb(249 , 249 , 249)&quot;&gt;任意正整数&lt;/td&gt;&lt;td style=&quot;padding: 8px ; line-height: 20px ; text-align: left ; vertical-align: top ; border-top: 1px solid rgb(221 , 221 , 221) ; background-color: rgb(249 , 249 , 249)&quot;&gt;未设置 (null)&lt;/td&gt;&lt;/tr&gt;&lt;tr class=&quot;a&quot;&gt;&lt;td style=&quot;padding: 8px ; line-height: 20px ; text-align: left ; vertical-align: top ; border-top: 1px solid rgb(221 , 221 , 221)&quot;&gt;defaultResultSetType&lt;/td&gt;&lt;td style=&quot;padding: 8px ; line-height: 20px ; text-align: left ; vertical-align: top ; border-top: 1px solid rgb(221 , 221 , 221)&quot;&gt;指定语句默认的滚动策略。（新增于 3.5.2）&lt;/td&gt;&lt;td style=&quot;padding: 8px ; line-height: 20px ; text-align: left ; vertical-align: top ; border-top: 1px solid rgb(221 , 221 , 221)&quot;&gt;FORWARD_ONLY | SCROLL_SENSITIVE | SCROLL_INSENSITIVE | DEFAULT（等同于未设置）&lt;/td&gt;&lt;td style=&quot;padding: 8px ; line-height: 20px ; text-align: left ; vertical-align: top ; border-top: 1px solid rgb(221 , 221 , 221)&quot;&gt;未设置 (null)&lt;/td&gt;&lt;/tr&gt;&lt;tr class=&quot;b&quot;&gt;&lt;td style=&quot;padding: 8px ; line-height: 20px ; text-align: left ; vertical-align: top ; border-top: 1px solid rgb(221 , 221 , 221) ; background-color: rgb(249 , 249 , 249)&quot;&gt;safeRowBoundsEnabled&lt;/td&gt;&lt;td style=&quot;padding: 8px ; line-height: 20px ; text-align: left ; vertical-align: top ; border-top: 1px solid rgb(221 , 221 , 221) ; background-color: rgb(249 , 249 , 249)&quot;&gt;是否允许在嵌套语句中使用分页（RowBounds）。如果允许使用则设置为 false。&lt;/td&gt;&lt;td style=&quot;padding: 8px ; line-height: 20px ; text-align: left ; vertical-align: top ; border-top: 1px solid rgb(221 , 221 , 221) ; background-color: rgb(249 , 249 , 249)&quot;&gt;true | false&lt;/td&gt;&lt;td style=&quot;padding: 8px ; line-height: 20px ; text-align: left ; vertical-align: top ; border-top: 1px solid rgb(221 , 221 , 221) ; background-color: rgb(249 , 249 , 249)&quot;&gt;False&lt;/td&gt;&lt;/tr&gt;&lt;tr class=&quot;a&quot;&gt;&lt;td style=&quot;padding: 8px ; line-height: 20px ; text-align: left ; vertical-align: top ; border-top: 1px solid rgb(221 , 221 , 221)&quot;&gt;safeResultHandlerEnabled&lt;/td&gt;&lt;td style=&quot;padding: 8px ; line-height: 20px ; text-align: left ; vertical-align: top ; border-top: 1px solid rgb(221 , 221 , 221)&quot;&gt;是否允许在嵌套语句中使用结果处理器（ResultHandler）。如果允许使用则设置为 false。&lt;/td&gt;&lt;td style=&quot;padding: 8px ; line-height: 20px ; text-align: left ; vertical-align: top ; border-top: 1px solid rgb(221 , 221 , 221)&quot;&gt;true | false&lt;/td&gt;&lt;td style=&quot;padding: 8px ; line-height: 20px ; text-align: left ; vertical-align: top ; border-top: 1px solid rgb(221 , 221 , 221)&quot;&gt;True&lt;/td&gt;&lt;/tr&gt;&lt;tr class=&quot;b&quot;&gt;&lt;td style=&quot;padding: 8px ; line-height: 20px ; text-align: left ; vertical-align: top ; border-top: 1px solid rgb(221 , 221 , 221) ; background-color: rgb(249 , 249 , 249)&quot;&gt;mapUnderscoreToCamelCase&lt;/td&gt;&lt;td style=&quot;padding: 8px ; line-height: 20px ; text-align: left ; vertical-align: top ; border-top: 1px solid rgb(221 , 221 , 221) ; background-color: rgb(249 , 249 , 249)&quot;&gt;是否开启驼峰命名自动映射，即从经典数据库列名 A_COLUMN 映射到经典 Java 属性名 aColumn。&lt;/td&gt;&lt;td style=&quot;padding: 8px ; line-height: 20px ; text-align: left ; vertical-align: top ; border-top: 1px solid rgb(221 , 221 , 221) ; background-color: rgb(249 , 249 , 249)&quot;&gt;true | false&lt;/td&gt;&lt;td style=&quot;padding: 8px ; line-height: 20px ; text-align: left ; vertical-align: top ; border-top: 1px solid rgb(221 , 221 , 221) ; background-color: rgb(249 , 249 , 249)&quot;&gt;False&lt;/td&gt;&lt;/tr&gt;&lt;tr class=&quot;a&quot;&gt;&lt;td style=&quot;padding: 8px ; line-height: 20px ; text-align: left ; vertical-align: top ; border-top: 1px solid rgb(221 , 221 , 221)&quot;&gt;localCacheScope&lt;/td&gt;&lt;td style=&quot;padding: 8px ; line-height: 20px ; text-align: left ; vertical-align: top ; border-top: 1px solid rgb(221 , 221 , 221)&quot;&gt;MyBatis 利用本地缓存机制（Local Cache）防止循环引用和加速重复的嵌套查询。 默认值为 SESSION，会缓存一个会话中执行的所有查询。 若设置值为 STATEMENT，本地缓存将仅用于执行语句，对相同 SqlSession 的不同查询将不会进行缓存。&lt;/td&gt;&lt;td style=&quot;padding: 8px ; line-height: 20px ; text-align: left ; vertical-align: top ; border-top: 1px solid rgb(221 , 221 , 221)&quot;&gt;SESSION | STATEMENT&lt;/td&gt;&lt;td style=&quot;padding: 8px ; line-height: 20px ; text-align: left ; vertical-align: top ; border-top: 1px solid rgb(221 , 221 , 221)&quot;&gt;SESSION&lt;/td&gt;&lt;/tr&gt;&lt;tr class=&quot;b&quot;&gt;&lt;td style=&quot;padding: 8px ; line-height: 20px ; text-align: left ; vertical-align: top ; border-top: 1px solid rgb(221 , 221 , 221) ; background-color: rgb(249 , 249 , 249)&quot;&gt;jdbcTypeForNull&lt;/td&gt;&lt;td style=&quot;padding: 8px ; line-height: 20px ; text-align: left ; vertical-align: top ; border-top: 1px solid rgb(221 , 221 , 221) ; background-color: rgb(249 , 249 , 249)&quot;&gt;当没有为参数指定特定的 JDBC 类型时，空值的默认 JDBC 类型。 某些数据库驱动需要指定列的 JDBC 类型，多数情况直接用一般类型即可，比如 NULL、VARCHAR 或 OTHER。&lt;/td&gt;&lt;td style=&quot;padding: 8px ; line-height: 20px ; text-align: left ; vertical-align: top ; border-top: 1px solid rgb(221 , 221 , 221) ; background-color: rgb(249 , 249 , 249)&quot;&gt;JdbcType 常量，常用值：NULL、VARCHAR 或 OTHER。&lt;/td&gt;&lt;td style=&quot;padding: 8px ; line-height: 20px ; text-align: left ; vertical-align: top ; border-top: 1px solid rgb(221 , 221 , 221) ; background-color: rgb(249 , 249 , 249)&quot;&gt;OTHER&lt;/td&gt;&lt;/tr&gt;&lt;tr class=&quot;a&quot;&gt;&lt;td style=&quot;padding: 8px ; line-height: 20px ; text-align: left ; vertical-align: top ; border-top: 1px solid rgb(221 , 221 , 221)&quot;&gt;lazyLoadTriggerMethods&lt;/td&gt;&lt;td style=&quot;padding: 8px ; line-height: 20px ; text-align: left ; vertical-align: top ; border-top: 1px solid rgb(221 , 221 , 221)&quot;&gt;指定对象的哪些方法触发一次延迟加载。&lt;/td&gt;&lt;td style=&quot;padding: 8px ; line-height: 20px ; text-align: left ; vertical-align: top ; border-top: 1px solid rgb(221 , 221 , 221)&quot;&gt;用逗号分隔的方法列表。&lt;/td&gt;&lt;td style=&quot;padding: 8px ; line-height: 20px ; text-align: left ; vertical-align: top ; border-top: 1px solid rgb(221 , 221 , 221)&quot;&gt;equals,clone,hashCode,toString&lt;/td&gt;&lt;/tr&gt;&lt;tr class=&quot;b&quot;&gt;&lt;td style=&quot;padding: 8px ; line-height: 20px ; text-align: left ; vertical-align: top ; border-top: 1px solid rgb(221 , 221 , 221) ; background-color: rgb(249 , 249 , 249)&quot;&gt;defaultScriptingLanguage&lt;/td&gt;&lt;td style=&quot;padding: 8px ; line-height: 20px ; text-align: left ; vertical-align: top ; border-top: 1px solid rgb(221 , 221 , 221) ; background-color: rgb(249 , 249 , 249)&quot;&gt;指定动态 SQL 生成使用的默认脚本语言。&lt;/td&gt;&lt;td style=&quot;padding: 8px ; line-height: 20px ; text-align: left ; vertical-align: top ; border-top: 1px solid rgb(221 , 221 , 221) ; background-color: rgb(249 , 249 , 249)&quot;&gt;一个类型别名或全限定类名。&lt;/td&gt;&lt;td style=&quot;padding: 8px ; line-height: 20px ; text-align: left ; vertical-align: top ; border-top: 1px solid rgb(221 , 221 , 221) ; background-color: rgb(249 , 249 , 249)&quot;&gt;org.apache.ibatis.scripting.xmltags.XMLLanguageDriver&lt;/td&gt;&lt;/tr&gt;&lt;tr class=&quot;a&quot;&gt;&lt;td style=&quot;padding: 8px ; line-height: 20px ; text-align: left ; vertical-align: top ; border-top: 1px solid rgb(221 , 221 , 221)&quot;&gt;defaultEnumTypeHandler&lt;/td&gt;&lt;td style=&quot;padding: 8px ; line-height: 20px ; text-align: left ; vertical-align: top ; border-top: 1px solid rgb(221 , 221 , 221)&quot;&gt;指定 Enum 使用的默认&lt;span&gt;&amp;nbsp;&lt;/span&gt;&lt;code style=&quot;padding: 2px 4px; font-family: monaco, menlo, consolas, &amp;quot;courier new&amp;quot;, monospace; font-size: 12px; color: rgb(221, 17, 68); border-radius: 3px; background-color: rgb(247, 247, 249); border: 1px solid rgb(225, 225, 232);&quot;&gt;TypeHandler&lt;/code&gt;&lt;span&gt;&amp;nbsp;&lt;/span&gt;。（新增于 3.4.5）&lt;/td&gt;&lt;td style=&quot;padding: 8px ; line-height: 20px ; text-align: left ; vertical-align: top ; border-top: 1px solid rgb(221 , 221 , 221)&quot;&gt;一个类型别名或全限定类名。&lt;/td&gt;&lt;td style=&quot;padding: 8px ; line-height: 20px ; text-align: left ; vertical-align: top ; border-top: 1px solid rgb(221 , 221 , 221)&quot;&gt;org.apache.ibatis.type.EnumTypeHandler&lt;/td&gt;&lt;/tr&gt;&lt;tr class=&quot;b&quot;&gt;&lt;td style=&quot;padding: 8px ; line-height: 20px ; text-align: left ; vertical-align: top ; border-top: 1px solid rgb(221 , 221 , 221) ; background-color: rgb(249 , 249 , 249)&quot;&gt;callSettersOnNulls&lt;/td&gt;&lt;td style=&quot;padding: 8px ; line-height: 20px ; text-align: left ; vertical-align: top ; border-top: 1px solid rgb(221 , 221 , 221) ; background-color: rgb(249 , 249 , 249)&quot;&gt;指定当结果集中值为 null 的时候是否调用映射对象的 setter（map 对象时为 put）方法，这在依赖于 Map.keySet() 或 null 值进行初始化时比较有用。注意基本类型（int、boolean 等）是不能设置成 null 的。&lt;/td&gt;&lt;td style=&quot;padding: 8px ; line-height: 20px ; text-align: left ; vertical-align: top ; border-top: 1px solid rgb(221 , 221 , 221) ; background-color: rgb(249 , 249 , 249)&quot;&gt;true | false&lt;/td&gt;&lt;td style=&quot;padding: 8px ; line-height: 20px ; text-align: left ; vertical-align: top ; border-top: 1px solid rgb(221 , 221 , 221) ; background-color: rgb(249 , 249 , 249)&quot;&gt;false&lt;/td&gt;&lt;/tr&gt;&lt;tr class=&quot;a&quot;&gt;&lt;td style=&quot;padding: 8px ; line-height: 20px ; text-align: left ; vertical-align: top ; border-top: 1px solid rgb(221 , 221 , 221)&quot;&gt;returnInstanceForEmptyRow&lt;/td&gt;&lt;td style=&quot;padding: 8px ; line-height: 20px ; text-align: left ; vertical-align: top ; border-top: 1px solid rgb(221 , 221 , 221)&quot;&gt;当返回行的所有列都是空时，MyBatis默认返回&lt;span&gt;&amp;nbsp;&lt;/span&gt;&lt;code style=&quot;padding: 2px 4px; font-family: monaco, menlo, consolas, &amp;quot;courier new&amp;quot;, monospace; font-size: 12px; color: rgb(221, 17, 68); border-radius: 3px; background-color: rgb(247, 247, 249); border: 1px solid rgb(225, 225, 232);&quot;&gt;null&lt;/code&gt;。 当开启这个设置时，MyBatis会返回一个空实例。 请注意，它也适用于嵌套的结果集（如集合或关联）。（新增于 3.4.2）&lt;/td&gt;&lt;td style=&quot;padding: 8px ; line-height: 20px ; text-align: left ; vertical-align: top ; border-top: 1px solid rgb(221 , 221 , 221)&quot;&gt;true | false&lt;/td&gt;&lt;td style=&quot;padding: 8px ; line-height: 20px ; text-align: left ; vertical-align: top ; border-top: 1px solid rgb(221 , 221 , 221)&quot;&gt;false&lt;/td&gt;&lt;/tr&gt;&lt;tr class=&quot;b&quot;&gt;&lt;td style=&quot;padding: 8px ; line-height: 20px ; text-align: left ; vertical-align: top ; border-top: 1px solid rgb(221 , 221 , 221) ; background-color: rgb(249 , 249 , 249)&quot;&gt;logPrefix&lt;/td&gt;&lt;td style=&quot;padding: 8px ; line-height: 20px ; text-align: left ; vertical-align: top ; border-top: 1px solid rgb(221 , 221 , 221) ; background-color: rgb(249 , 249 , 249)&quot;&gt;指定 MyBatis 增加到日志名称的前缀。&lt;/td&gt;&lt;td style=&quot;padding: 8px ; line-height: 20px ; text-align: left ; vertical-align: top ; border-top: 1px solid rgb(221 , 221 , 221) ; background-color: rgb(249 , 249 , 249)&quot;&gt;任何字符串&lt;/td&gt;&lt;td style=&quot;padding: 8px ; line-height: 20px ; text-align: left ; vertical-align: top ; border-top: 1px solid rgb(221 , 221 , 221) ; background-color: rgb(249 , 249 , 249)&quot;&gt;未设置&lt;/td&gt;&lt;/tr&gt;&lt;tr class=&quot;a&quot;&gt;&lt;td style=&quot;padding: 8px ; line-height: 20px ; text-align: left ; vertical-align: top ; border-top: 1px solid rgb(221 , 221 , 221)&quot;&gt;logImpl&lt;/td&gt;&lt;td style=&quot;padding: 8px ; line-height: 20px ; text-align: left ; vertical-align: top ; border-top: 1px solid rgb(221 , 221 , 221)&quot;&gt;指定 MyBatis 所用日志的具体实现，未指定时将自动查找。&lt;/td&gt;&lt;td style=&quot;padding: 8px ; line-height: 20px ; text-align: left ; vertical-align: top ; border-top: 1px solid rgb(221 , 221 , 221)&quot;&gt;SLF4J | LOG4J | LOG4J2 | JDK_LOGGING | COMMONS_LOGGING | STDOUT_LOGGING | NO_LOGGING&lt;/td&gt;&lt;td style=&quot;padding: 8px ; line-height: 20px ; text-align: left ; vertical-align: top ; border-top: 1px solid rgb(221 , 221 , 221)&quot;&gt;未设置&lt;/td&gt;&lt;/tr&gt;&lt;tr class=&quot;b&quot;&gt;&lt;td style=&quot;padding: 8px ; line-height: 20px ; text-align: left ; vertical-align: top ; border-top: 1px solid rgb(221 , 221 , 221) ; background-color: rgb(249 , 249 , 249)&quot;&gt;proxyFactory&lt;/td&gt;&lt;td style=&quot;padding: 8px ; line-height: 20px ; text-align: left ; vertical-align: top ; border-top: 1px solid rgb(221 , 221 , 221) ; background-color: rgb(249 , 249 , 249)&quot;&gt;指定 Mybatis 创建可延迟加载对象所用到的代理工具。&lt;/td&gt;&lt;td style=&quot;padding: 8px ; line-height: 20px ; text-align: left ; vertical-align: top ; border-top: 1px solid rgb(221 , 221 , 221) ; background-color: rgb(249 , 249 , 249)&quot;&gt;CGLIB | JAVASSIST&lt;/td&gt;&lt;td style=&quot;padding: 8px ; line-height: 20px ; text-align: left ; vertical-align: top ; border-top: 1px solid rgb(221 , 221 , 221) ; background-color: rgb(249 , 249 , 249)&quot;&gt;JAVASSIST （MyBatis 3.3 以上）&lt;/td&gt;&lt;/tr&gt;&lt;tr class=&quot;a&quot;&gt;&lt;td style=&quot;padding: 8px ; line-height: 20px ; text-align: left ; vertical-align: top ; border-top: 1px solid rgb(221 , 221 , 221)&quot;&gt;vfsImpl&lt;/td&gt;&lt;td style=&quot;padding: 8px ; line-height: 20px ; text-align: left ; vertical-align: top ; border-top: 1px solid rgb(221 , 221 , 221)&quot;&gt;指定 VFS 的实现&lt;/td&gt;&lt;td style=&quot;padding: 8px ; line-height: 20px ; text-align: left ; vertical-align: top ; border-top: 1px solid rgb(221 , 221 , 221)&quot;&gt;自定义 VFS 的实现的类全限定名，以逗号分隔。&lt;/td&gt;&lt;td style=&quot;padding: 8px ; line-height: 20px ; text-align: left ; vertical-align: top ; border-top: 1px solid rgb(221 , 221 , 221)&quot;&gt;未设置&lt;/td&gt;&lt;/tr&gt;&lt;tr class=&quot;b&quot;&gt;&lt;td style=&quot;padding: 8px ; line-height: 20px ; text-align: left ; vertical-align: top ; border-top: 1px solid rgb(221 , 221 , 221) ; background-color: rgb(249 , 249 , 249)&quot;&gt;useActualParamName&lt;/td&gt;&lt;td style=&quot;padding: 8px ; line-height: 20px ; text-align: left ; vertical-align: top ; border-top: 1px solid rgb(221 , 221 , 221) ; background-color: rgb(249 , 249 , 249)&quot;&gt;允许使用方法签名中的名称作为语句参数名称。 为了使用该特性，你的项目必须采用 Java 8 编译，并且加上&lt;span&gt;&amp;nbsp;&lt;/span&gt;&lt;code style=&quot;padding: 2px 4px; font-family: monaco, menlo, consolas, &amp;quot;courier new&amp;quot;, monospace; font-size: 12px; color: rgb(221, 17, 68); border-radius: 3px; background-color: rgb(247, 247, 249); border: 1px solid rgb(225, 225, 232);&quot;&gt;-parameters&lt;/code&gt;&lt;span&gt;&amp;nbsp;&lt;/span&gt;选项。（新增于 3.4.1）&lt;/td&gt;&lt;td style=&quot;padding: 8px ; line-height: 20px ; text-align: left ; vertical-align: top ; border-top: 1px solid rgb(221 , 221 , 221) ; background-color: rgb(249 , 249 , 249)&quot;&gt;true | false&lt;/td&gt;&lt;td style=&quot;padding: 8px ; line-height: 20px ; text-align: left ; vertical-align: top ; border-top: 1px solid rgb(221 , 221 , 221) ; background-color: rgb(249 , 249 , 249)&quot;&gt;true&lt;/td&gt;&lt;/tr&gt;&lt;tr class=&quot;a&quot;&gt;&lt;td style=&quot;padding: 8px ; line-height: 20px ; text-align: left ; vertical-align: top ; border-top: 1px solid rgb(221 , 221 , 221)&quot;&gt;configurationFactory&lt;/td&gt;&lt;td style=&quot;padding: 8px ; line-height: 20px ; text-align: left ; vertical-align: top ; border-top: 1px solid rgb(221 , 221 , 221)&quot;&gt;指定一个提供&lt;span&gt;&amp;nbsp;&lt;/span&gt;&lt;code style=&quot;padding: 2px 4px; font-family: monaco, menlo, consolas, &amp;quot;courier new&amp;quot;, monospace; font-size: 12px; color: rgb(221, 17, 68); border-radius: 3px; background-color: rgb(247, 247, 249); border: 1px solid rgb(225, 225, 232);&quot;&gt;Configuration&lt;/code&gt;&lt;span&gt;&amp;nbsp;&lt;/span&gt;实例的类。 这个被返回的 Configuration 实例用来加载被反序列化对象的延迟加载属性值。 这个类必须包含一个签名为&lt;code style=&quot;padding: 2px 4px; font-family: monaco, menlo, consolas, &amp;quot;courier new&amp;quot;, monospace; font-size: 12px; color: rgb(221, 17, 68); border-radius: 3px; background-color: rgb(247, 247, 249); border: 1px solid rgb(225, 225, 232);&quot;&gt;static Configuration getConfiguration()&lt;/code&gt;&lt;span&gt;&amp;nbsp;&lt;/span&gt;的方法。（新增于 3.2.3）&lt;/td&gt;&lt;td style=&quot;padding: 8px ; line-height: 20px ; text-align: left ; vertical-align: top ; border-top: 1px solid rgb(221 , 221 , 221)&quot;&gt;一个类型别名或完全限定类名。&lt;/td&gt;&lt;td style=&quot;padding: 8px ; line-height: 20px ; text-align: left ; vertical-align: top ; border-top: 1px solid rgb(221 , 221 , 221)&quot;&gt;未设置&lt;/td&gt;&lt;/tr&gt;&lt;tr class=&quot;b&quot;&gt;&lt;td style=&quot;padding: 8px ; line-height: 20px ; text-align: left ; vertical-align: top ; border-top: 1px solid rgb(221 , 221 , 221) ; background-color: rgb(249 , 249 , 249)&quot;&gt;shrinkWhitespacesInSql&lt;/td&gt;&lt;td style=&quot;padding: 8px ; line-height: 20px ; text-align: left ; vertical-align: top ; border-top: 1px solid rgb(221 , 221 , 221) ; background-color: rgb(249 , 249 , 249)&quot;&gt;从SQL中删除多余的空格字符。请注意，这也会影响SQL中的文字字符串。 (新增于 3.5.5)&lt;/td&gt;&lt;td style=&quot;padding: 8px ; line-height: 20px ; text-align: left ; vertical-align: top ; border-top: 1px solid rgb(221 , 221 , 221) ; background-color: rgb(249 , 249 , 249)&quot;&gt;true | false&lt;/td&gt;&lt;td style=&quot;padding: 8px ; line-height: 20px ; text-align: left ; vertical-align: top ; border-top: 1px solid rgb(221 , 221 , 221) ; background-color: rgb(249 , 249 , 249)&quot;&gt;false&lt;/td&gt;&lt;/tr&gt;&lt;tr class=&quot;a&quot;&gt;&lt;td style=&quot;padding: 8px ; line-height: 20px ; text-align: left ; vertical-align: top ; border-top: 1px solid rgb(221 , 221 , 221)&quot;&gt;defaultSqlProviderType&lt;/td&gt;&lt;td style=&quot;padding: 8px ; line-height: 20px ; text-align: left ; vertical-align: top ; border-top: 1px solid rgb(221 , 221 , 221)&quot;&gt;Specifies an sql provider class that holds provider method (Since 3.5.6). This class apply to the&lt;span&gt;&amp;nbsp;&lt;/span&gt;&lt;code style=&quot;padding: 2px 4px; font-family: monaco, menlo, consolas, &amp;quot;courier new&amp;quot;, monospace; font-size: 12px; color: rgb(221, 17, 68); border-radius: 3px; background-color: rgb(247, 247, 249); border: 1px solid rgb(225, 225, 232);&quot;&gt;type&lt;/code&gt;(or&lt;span&gt;&amp;nbsp;&lt;/span&gt;&lt;code style=&quot;padding: 2px 4px; font-family: monaco, menlo, consolas, &amp;quot;courier new&amp;quot;, monospace; font-size: 12px; color: rgb(221, 17, 68); border-radius: 3px; background-color: rgb(247, 247, 249); border: 1px solid rgb(225, 225, 232);&quot;&gt;value&lt;/code&gt;) attribute on sql provider annotation(e.g.&lt;span&gt;&amp;nbsp;&lt;/span&gt;&lt;code style=&quot;padding: 2px 4px; font-family: monaco, menlo, consolas, &amp;quot;courier new&amp;quot;, monospace; font-size: 12px; color: rgb(221, 17, 68); border-radius: 3px; background-color: rgb(247, 247, 249); border: 1px solid rgb(225, 225, 232);&quot;&gt;@SelectProvider&lt;/code&gt;), when these attribute was omitted.&lt;/td&gt;&lt;td style=&quot;padding: 8px ; line-height: 20px ; text-align: left ; vertical-align: top ; border-top: 1px solid rgb(221 , 221 , 221)&quot;&gt;A type alias or fully qualified class name&lt;/td&gt;&lt;td style=&quot;padding: 8px ; line-height: 20px ; text-align: left ; vertical-align: top ; border-top: 1px solid rgb(221 , 221 , 221)&quot;&gt;Not set&lt;/td&gt;&lt;/tr&gt;&lt;/tbody&gt;&lt;/table&gt;" style="text;whiteSpace=wrap;html=1;" vertex="1" parent="1">
          <mxGeometry x="2430" y="410" width="1320" height="2110" as="geometry" />
        </mxCell>
        <mxCell id="y6wtNaFaqwbzHfmVruar-35" style="edgeStyle=none;rounded=0;orthogonalLoop=1;jettySize=auto;html=1;exitX=1;exitY=0.5;exitDx=0;exitDy=0;entryX=0;entryY=0.5;entryDx=0;entryDy=0;" edge="1" parent="1" source="y6wtNaFaqwbzHfmVruar-33" target="y6wtNaFaqwbzHfmVruar-34">
          <mxGeometry relative="1" as="geometry" />
        </mxCell>
        <mxCell id="y6wtNaFaqwbzHfmVruar-33" value="设置" style="rounded=0;whiteSpace=wrap;html=1;" vertex="1" parent="1">
          <mxGeometry x="480" y="1430" width="120" height="60" as="geometry" />
        </mxCell>
        <mxCell id="y6wtNaFaqwbzHfmVruar-37" style="edgeStyle=none;rounded=0;orthogonalLoop=1;jettySize=auto;html=1;exitX=1;exitY=0.5;exitDx=0;exitDy=0;" edge="1" parent="1" source="y6wtNaFaqwbzHfmVruar-34" target="y6wtNaFaqwbzHfmVruar-31">
          <mxGeometry relative="1" as="geometry" />
        </mxCell>
        <mxCell id="y6wtNaFaqwbzHfmVruar-34" value="&lt;pre class=&quot;prettyprint&quot; style=&quot;padding: 2px ; font-family: &amp;#34;monaco&amp;#34; , &amp;#34;menlo&amp;#34; , &amp;#34;consolas&amp;#34; , &amp;#34;courier new&amp;#34; , monospace ; font-size: 13px ; color: rgb(51 , 51 , 51) ; border-radius: 4px ; display: block ; margin: 0px 0px 20px ; line-height: 20px ; word-break: break-all ; overflow-wrap: break-word ; background-color: rgb(245 , 245 , 245) ; border: 1px solid rgb(136 , 136 , 136) ; font-style: normal ; font-weight: 400 ; letter-spacing: normal ; text-indent: 0px ; text-transform: none ; word-spacing: 0px&quot;&gt;&lt;span class=&quot;tag&quot; style=&quot;color: rgb(0 , 0 , 136)&quot;&gt;&amp;lt;settings&amp;gt;&lt;/span&gt;&lt;span class=&quot;pln&quot; style=&quot;color: rgb(0 , 0 , 0)&quot;&gt;&lt;br&gt;  &lt;/span&gt;&lt;span class=&quot;tag&quot; style=&quot;color: rgb(0 , 0 , 136)&quot;&gt;&amp;lt;setting&lt;/span&gt;&lt;span class=&quot;pln&quot; style=&quot;color: rgb(0 , 0 , 0)&quot;&gt; &lt;/span&gt;&lt;span class=&quot;atn&quot; style=&quot;color: rgb(102 , 0 , 102)&quot;&gt;name&lt;/span&gt;&lt;span class=&quot;pun&quot; style=&quot;color: rgb(102 , 102 , 0)&quot;&gt;=&lt;/span&gt;&lt;span class=&quot;atv&quot; style=&quot;color: rgb(0 , 136 , 0)&quot;&gt;&quot;name&quot;&lt;/span&gt;&lt;span class=&quot;pln&quot; style=&quot;color: rgb(0 , 0 , 0)&quot;&gt; &lt;/span&gt;&lt;span class=&quot;atn&quot; style=&quot;color: rgb(102 , 0 , 102)&quot;&gt;value&lt;/span&gt;&lt;span class=&quot;pun&quot; style=&quot;color: rgb(102 , 102 , 0)&quot;&gt;=&lt;/span&gt;&lt;span class=&quot;atv&quot; style=&quot;color: rgb(0 , 136 , 0)&quot;&gt;&quot;value&quot;&lt;/span&gt;&lt;span class=&quot;tag&quot; style=&quot;color: rgb(0 , 0 , 136)&quot;&gt;/&amp;gt;&lt;/span&gt;&lt;span class=&quot;pln&quot; style=&quot;color: rgb(0 , 0 , 0)&quot;&gt;&lt;br&gt;  &lt;/span&gt;&lt;span class=&quot;tag&quot; style=&quot;color: rgb(0 , 0 , 136)&quot;&gt;&amp;lt;setting&lt;/span&gt;&lt;span class=&quot;pln&quot; style=&quot;color: rgb(0 , 0 , 0)&quot;&gt; &lt;/span&gt;&lt;span class=&quot;atn&quot; style=&quot;color: rgb(102 , 0 , 102)&quot;&gt;name&lt;/span&gt;&lt;span class=&quot;pun&quot; style=&quot;color: rgb(102 , 102 , 0)&quot;&gt;=&lt;/span&gt;&lt;span class=&quot;atv&quot; style=&quot;color: rgb(0 , 136 , 0)&quot;&gt;&quot;name&quot;&lt;/span&gt;&lt;span class=&quot;pln&quot; style=&quot;color: rgb(0 , 0 , 0)&quot;&gt; &lt;/span&gt;&lt;span class=&quot;atn&quot; style=&quot;color: rgb(102 , 0 , 102)&quot;&gt;value&lt;/span&gt;&lt;span class=&quot;pun&quot; style=&quot;color: rgb(102 , 102 , 0)&quot;&gt;=&lt;/span&gt;&lt;span class=&quot;atv&quot; style=&quot;color: rgb(0 , 136 , 0)&quot;&gt;&quot;value&quot;&lt;/span&gt;&lt;span class=&quot;tag&quot; style=&quot;color: rgb(0 , 0 , 136)&quot;&gt;/&amp;gt;&lt;/span&gt;&lt;span class=&quot;pln&quot; style=&quot;color: rgb(0 , 0 , 0)&quot;&gt;&lt;br&gt;&lt;/span&gt;&lt;span class=&quot;tag&quot; style=&quot;color: rgb(0 , 0 , 136)&quot;&gt;&amp;lt;/settings&amp;gt;&lt;/span&gt;&lt;/pre&gt;" style="text;whiteSpace=wrap;html=1;" vertex="1" parent="1">
          <mxGeometry x="690" y="1410" width="310" height="100" as="geometry" />
        </mxCell>
        <mxCell id="y6wtNaFaqwbzHfmVruar-41" style="edgeStyle=none;rounded=0;orthogonalLoop=1;jettySize=auto;html=1;exitX=1;exitY=0.5;exitDx=0;exitDy=0;entryX=0;entryY=0.5;entryDx=0;entryDy=0;" edge="1" parent="1" source="y6wtNaFaqwbzHfmVruar-38" target="y6wtNaFaqwbzHfmVruar-40">
          <mxGeometry relative="1" as="geometry" />
        </mxCell>
        <mxCell id="y6wtNaFaqwbzHfmVruar-44" style="edgeStyle=none;rounded=0;orthogonalLoop=1;jettySize=auto;html=1;exitX=1;exitY=0.5;exitDx=0;exitDy=0;entryX=0;entryY=0.5;entryDx=0;entryDy=0;" edge="1" parent="1" source="y6wtNaFaqwbzHfmVruar-38" target="y6wtNaFaqwbzHfmVruar-42">
          <mxGeometry relative="1" as="geometry" />
        </mxCell>
        <mxCell id="y6wtNaFaqwbzHfmVruar-38" value="类名别名" style="rounded=0;whiteSpace=wrap;html=1;" vertex="1" parent="1">
          <mxGeometry x="480" y="1590" width="120" height="60" as="geometry" />
        </mxCell>
        <mxCell id="y6wtNaFaqwbzHfmVruar-40" value="&lt;pre class=&quot;prettyprint&quot; style=&quot;padding: 2px ; font-family: &amp;#34;monaco&amp;#34; , &amp;#34;menlo&amp;#34; , &amp;#34;consolas&amp;#34; , &amp;#34;courier new&amp;#34; , monospace ; font-size: 13px ; color: rgb(51 , 51 , 51) ; border-radius: 4px ; display: block ; margin: 0px 0px 20px ; line-height: 20px ; word-break: break-all ; overflow-wrap: break-word ; background-color: rgb(245 , 245 , 245) ; border: 1px solid rgb(136 , 136 , 136) ; font-style: normal ; font-weight: 400 ; letter-spacing: normal ; text-indent: 0px ; text-transform: none ; word-spacing: 0px&quot;&gt;&lt;span class=&quot;tag&quot; style=&quot;color: rgb(0 , 0 , 136)&quot;&gt;&amp;lt;typeAliases&amp;gt;&lt;/span&gt;&lt;span class=&quot;pln&quot; style=&quot;color: rgb(0 , 0 , 0)&quot;&gt;&lt;br&gt;  &lt;/span&gt;&lt;span class=&quot;tag&quot; style=&quot;color: rgb(0 , 0 , 136)&quot;&gt;&amp;lt;typeAlias&lt;/span&gt;&lt;span class=&quot;pln&quot; style=&quot;color: rgb(0 , 0 , 0)&quot;&gt; &lt;/span&gt;&lt;span class=&quot;atn&quot; style=&quot;color: rgb(102 , 0 , 102)&quot;&gt;alias&lt;/span&gt;&lt;span class=&quot;pun&quot; style=&quot;color: rgb(102 , 102 , 0)&quot;&gt;=&lt;/span&gt;&lt;span class=&quot;atv&quot; style=&quot;color: rgb(0 , 136 , 0)&quot;&gt;&quot;Author&quot;&lt;/span&gt;&lt;span class=&quot;pln&quot; style=&quot;color: rgb(0 , 0 , 0)&quot;&gt; &lt;/span&gt;&lt;span class=&quot;atn&quot; style=&quot;color: rgb(102 , 0 , 102)&quot;&gt;type&lt;/span&gt;&lt;span class=&quot;pun&quot; style=&quot;color: rgb(102 , 102 , 0)&quot;&gt;=&lt;/span&gt;&lt;span class=&quot;atv&quot; style=&quot;color: rgb(0 , 136 , 0)&quot;&gt;&quot;domain.blog.Author&quot;&lt;/span&gt;&lt;span class=&quot;tag&quot; style=&quot;color: rgb(0 , 0 , 136)&quot;&gt;/&amp;gt;&lt;/span&gt;&lt;span class=&quot;pln&quot; style=&quot;color: rgb(0 , 0 , 0)&quot;&gt;&lt;br&gt;  &lt;/span&gt;&lt;span class=&quot;tag&quot; style=&quot;color: rgb(0 , 0 , 136)&quot;&gt;&amp;lt;typeAlias&lt;/span&gt;&lt;span class=&quot;pln&quot; style=&quot;color: rgb(0 , 0 , 0)&quot;&gt; &lt;/span&gt;&lt;span class=&quot;atn&quot; style=&quot;color: rgb(102 , 0 , 102)&quot;&gt;alias&lt;/span&gt;&lt;span class=&quot;pun&quot; style=&quot;color: rgb(102 , 102 , 0)&quot;&gt;=&lt;/span&gt;&lt;span class=&quot;atv&quot; style=&quot;color: rgb(0 , 136 , 0)&quot;&gt;&quot;Blog&quot;&lt;/span&gt;&lt;span class=&quot;pln&quot; style=&quot;color: rgb(0 , 0 , 0)&quot;&gt; &lt;/span&gt;&lt;span class=&quot;atn&quot; style=&quot;color: rgb(102 , 0 , 102)&quot;&gt;type&lt;/span&gt;&lt;span class=&quot;pun&quot; style=&quot;color: rgb(102 , 102 , 0)&quot;&gt;=&lt;/span&gt;&lt;span class=&quot;atv&quot; style=&quot;color: rgb(0 , 136 , 0)&quot;&gt;&quot;domain.blog.Blog&quot;&lt;/span&gt;&lt;span class=&quot;tag&quot; style=&quot;color: rgb(0 , 0 , 136)&quot;&gt;/&amp;gt;&lt;/span&gt;&lt;span class=&quot;pln&quot; style=&quot;color: rgb(0 , 0 , 0)&quot;&gt;&lt;br&gt;&lt;/span&gt;&lt;span class=&quot;tag&quot; style=&quot;color: rgb(0 , 0 , 136)&quot;&gt;&amp;lt;/typeAliases&amp;gt;&lt;/span&gt;&lt;/pre&gt;" style="text;whiteSpace=wrap;html=1;" vertex="1" parent="1">
          <mxGeometry x="810" y="1570" width="440" height="100" as="geometry" />
        </mxCell>
        <mxCell id="y6wtNaFaqwbzHfmVruar-45" style="edgeStyle=none;rounded=0;orthogonalLoop=1;jettySize=auto;html=1;entryX=0;entryY=0.5;entryDx=0;entryDy=0;" edge="1" parent="1" source="y6wtNaFaqwbzHfmVruar-42" target="y6wtNaFaqwbzHfmVruar-43">
          <mxGeometry relative="1" as="geometry" />
        </mxCell>
        <mxCell id="y6wtNaFaqwbzHfmVruar-42" value="全包都进行别名&lt;br&gt;首字母小写的驼峰式命名&lt;br&gt;类型名首字母也是小写的话则以下划线开头" style="rounded=0;whiteSpace=wrap;html=1;" vertex="1" parent="1">
          <mxGeometry x="660" y="1700" width="280" height="70" as="geometry" />
        </mxCell>
        <mxCell id="y6wtNaFaqwbzHfmVruar-43" value="&lt;meta charset=&quot;utf-8&quot;&gt;&lt;pre class=&quot;prettyprint&quot; style=&quot;padding: 2px; font-family: monaco, menlo, consolas, &amp;quot;courier new&amp;quot;, monospace; font-size: 13px; color: rgb(51, 51, 51); border-radius: 4px; display: block; margin: 0px 0px 20px; line-height: 20px; word-break: break-all; overflow-wrap: break-word; background-color: rgb(245, 245, 245); border: 1px solid rgb(136, 136, 136); font-style: normal; font-weight: 400; letter-spacing: normal; text-indent: 0px; text-transform: none; word-spacing: 0px;&quot;&gt;&lt;span class=&quot;tag&quot; style=&quot;color: rgb(0 , 0 , 136)&quot;&gt;&amp;lt;typeAliases&amp;gt;&lt;/span&gt;&lt;span class=&quot;pln&quot; style=&quot;color: rgb(0 , 0 , 0)&quot;&gt;&#xa;  &lt;/span&gt;&lt;span class=&quot;tag&quot; style=&quot;color: rgb(0 , 0 , 136)&quot;&gt;&amp;lt;package&lt;/span&gt;&lt;span class=&quot;pln&quot; style=&quot;color: rgb(0 , 0 , 0)&quot;&gt; &lt;/span&gt;&lt;span class=&quot;atn&quot; style=&quot;color: rgb(102 , 0 , 102)&quot;&gt;name&lt;/span&gt;&lt;span class=&quot;pun&quot; style=&quot;color: rgb(102 , 102 , 0)&quot;&gt;=&lt;/span&gt;&lt;span class=&quot;atv&quot; style=&quot;color: rgb(0 , 136 , 0)&quot;&gt;&quot;domain.blog&quot;&lt;/span&gt;&lt;span class=&quot;tag&quot; style=&quot;color: rgb(0 , 0 , 136)&quot;&gt;/&amp;gt;&lt;/span&gt;&lt;span class=&quot;pln&quot; style=&quot;color: rgb(0 , 0 , 0)&quot;&gt;&#xa;&lt;/span&gt;&lt;span class=&quot;tag&quot; style=&quot;color: rgb(0 , 0 , 136)&quot;&gt;&amp;lt;/typeAliases&amp;gt;&lt;/span&gt;&lt;/pre&gt;" style="text;whiteSpace=wrap;html=1;" vertex="1" parent="1">
          <mxGeometry x="1040" y="1695" width="260" height="80" as="geometry" />
        </mxCell>
        <mxCell id="y6wtNaFaqwbzHfmVruar-47" value="https://mybatis.org/mybatis-3/zh/configuration.html" style="rounded=0;whiteSpace=wrap;html=1;" vertex="1" parent="1">
          <mxGeometry x="480" y="1110" width="410" height="60" as="geometry" />
        </mxCell>
        <mxCell id="y6wtNaFaqwbzHfmVruar-50" style="edgeStyle=none;rounded=0;orthogonalLoop=1;jettySize=auto;html=1;exitX=1;exitY=0.5;exitDx=0;exitDy=0;entryX=0;entryY=0.5;entryDx=0;entryDy=0;" edge="1" parent="1" source="y6wtNaFaqwbzHfmVruar-48" target="y6wtNaFaqwbzHfmVruar-51">
          <mxGeometry relative="1" as="geometry">
            <mxPoint x="670" y="1910" as="targetPoint" />
          </mxGeometry>
        </mxCell>
        <mxCell id="y6wtNaFaqwbzHfmVruar-55" style="edgeStyle=none;rounded=0;orthogonalLoop=1;jettySize=auto;html=1;exitX=1;exitY=0.5;exitDx=0;exitDy=0;entryX=0;entryY=0.5;entryDx=0;entryDy=0;" edge="1" parent="1" source="y6wtNaFaqwbzHfmVruar-48" target="y6wtNaFaqwbzHfmVruar-52">
          <mxGeometry relative="1" as="geometry" />
        </mxCell>
        <mxCell id="y6wtNaFaqwbzHfmVruar-58" style="edgeStyle=none;rounded=0;orthogonalLoop=1;jettySize=auto;html=1;exitX=1;exitY=0.5;exitDx=0;exitDy=0;entryX=0;entryY=0.5;entryDx=0;entryDy=0;" edge="1" parent="1" source="y6wtNaFaqwbzHfmVruar-48" target="y6wtNaFaqwbzHfmVruar-57">
          <mxGeometry relative="1" as="geometry" />
        </mxCell>
        <mxCell id="y6wtNaFaqwbzHfmVruar-60" style="edgeStyle=none;rounded=0;orthogonalLoop=1;jettySize=auto;html=1;exitX=1;exitY=0.5;exitDx=0;exitDy=0;entryX=0;entryY=0.5;entryDx=0;entryDy=0;" edge="1" parent="1" source="y6wtNaFaqwbzHfmVruar-48" target="y6wtNaFaqwbzHfmVruar-59">
          <mxGeometry relative="1" as="geometry" />
        </mxCell>
        <mxCell id="y6wtNaFaqwbzHfmVruar-48" value="类型处理器" style="rounded=0;whiteSpace=wrap;html=1;" vertex="1" parent="1">
          <mxGeometry x="480" y="1990" width="120" height="60" as="geometry" />
        </mxCell>
        <mxCell id="y6wtNaFaqwbzHfmVruar-51" value="实现类型处理器可以实现&amp;nbsp;&lt;span style=&quot;color: rgb(221 , 17 , 68) ; font-family: &amp;#34;monaco&amp;#34; , &amp;#34;menlo&amp;#34; , &amp;#34;consolas&amp;#34; , &amp;#34;courier new&amp;#34; , monospace ; background-color: rgb(247 , 247 , 249)&quot;&gt;org.apache.ibatis.type.TypeHandler&lt;/span&gt;&lt;br&gt;&amp;nbsp;接口或继承&amp;nbsp;&lt;span style=&quot;color: rgb(221 , 17 , 68) ; font-family: &amp;#34;monaco&amp;#34; , &amp;#34;menlo&amp;#34; , &amp;#34;consolas&amp;#34; , &amp;#34;courier new&amp;#34; , monospace ; background-color: rgb(247 , 247 , 249)&quot;&gt;org.apache.ibatis.type.BaseTypeHandler&lt;/span&gt;&amp;nbsp;类；并且可选映射到数据库的 JDBC&amp;nbsp; 类型（在类上添加&lt;span class=&quot;lit&quot; style=&quot;font-family: &amp;#34;monaco&amp;#34; , &amp;#34;menlo&amp;#34; , &amp;#34;consolas&amp;#34; , &amp;#34;courier new&amp;#34; , monospace ; font-size: 13px ; color: rgb(0 , 102 , 102)&quot;&gt;@MappedJdbcTypes&lt;/span&gt;&lt;span class=&quot;pun&quot; style=&quot;font-family: &amp;#34;monaco&amp;#34; , &amp;#34;menlo&amp;#34; , &amp;#34;consolas&amp;#34; , &amp;#34;courier new&amp;#34; , monospace ; font-size: 13px ; color: rgb(102 , 102 , 0)&quot;&gt;(&lt;/span&gt;&lt;span class=&quot;typ&quot; style=&quot;font-family: &amp;#34;monaco&amp;#34; , &amp;#34;menlo&amp;#34; , &amp;#34;consolas&amp;#34; , &amp;#34;courier new&amp;#34; , monospace ; font-size: 13px ; color: rgb(102 , 0 , 102)&quot;&gt;JdbcType&lt;/span&gt;&lt;span class=&quot;pun&quot; style=&quot;font-family: &amp;#34;monaco&amp;#34; , &amp;#34;menlo&amp;#34; , &amp;#34;consolas&amp;#34; , &amp;#34;courier new&amp;#34; , monospace ; font-size: 13px ; color: rgb(102 , 102 , 0)&quot;&gt;.&lt;/span&gt;&lt;span class=&quot;pln&quot; style=&quot;font-family: &amp;#34;monaco&amp;#34; , &amp;#34;menlo&amp;#34; , &amp;#34;consolas&amp;#34; , &amp;#34;courier new&amp;#34; , monospace ; font-size: 13px&quot;&gt;VARCHAR&lt;/span&gt;&lt;span class=&quot;pun&quot; style=&quot;font-family: &amp;#34;monaco&amp;#34; , &amp;#34;menlo&amp;#34; , &amp;#34;consolas&amp;#34; , &amp;#34;courier new&amp;#34; , monospace ; font-size: 13px ; color: rgb(102 , 102 , 0)&quot;&gt;)&lt;/span&gt;&lt;span&gt;）&lt;/span&gt;" style="rounded=0;whiteSpace=wrap;html=1;" vertex="1" parent="1">
          <mxGeometry x="660" y="1875" width="575" height="70" as="geometry" />
        </mxCell>
        <mxCell id="y6wtNaFaqwbzHfmVruar-56" style="edgeStyle=none;rounded=0;orthogonalLoop=1;jettySize=auto;html=1;exitX=1;exitY=0.5;exitDx=0;exitDy=0;entryX=0;entryY=0.5;entryDx=0;entryDy=0;" edge="1" parent="1" source="y6wtNaFaqwbzHfmVruar-52" target="y6wtNaFaqwbzHfmVruar-53">
          <mxGeometry relative="1" as="geometry" />
        </mxCell>
        <mxCell id="y6wtNaFaqwbzHfmVruar-52" value="将实现类配置到 xml 文件中" style="rounded=0;whiteSpace=wrap;html=1;" vertex="1" parent="1">
          <mxGeometry x="665" y="1990" width="180" height="60" as="geometry" />
        </mxCell>
        <mxCell id="y6wtNaFaqwbzHfmVruar-53" value="&lt;meta charset=&quot;utf-8&quot;&gt;&lt;pre class=&quot;prettyprint&quot; style=&quot;padding: 2px; font-family: monaco, menlo, consolas, &amp;quot;courier new&amp;quot;, monospace; font-size: 13px; color: rgb(51, 51, 51); border-radius: 4px; display: block; margin: 0px 0px 20px; line-height: 20px; word-break: break-all; overflow-wrap: break-word; background-color: rgb(245, 245, 245); border: 1px solid rgb(136, 136, 136); font-style: normal; font-weight: 400; letter-spacing: normal; text-indent: 0px; text-transform: none; word-spacing: 0px;&quot;&gt;&lt;span class=&quot;com&quot; style=&quot;color: rgb(136 , 0 , 0)&quot;&gt;&amp;lt;!-- mybatis-config.xml --&amp;gt;&lt;/span&gt;&lt;span class=&quot;pln&quot; style=&quot;color: rgb(0 , 0 , 0)&quot;&gt;&#xa;&lt;/span&gt;&lt;span class=&quot;tag&quot; style=&quot;color: rgb(0 , 0 , 136)&quot;&gt;&amp;lt;typeHandlers&amp;gt;&lt;/span&gt;&lt;span class=&quot;pln&quot; style=&quot;color: rgb(0 , 0 , 0)&quot;&gt;&#xa;  &lt;/span&gt;&lt;span class=&quot;tag&quot; style=&quot;color: rgb(0 , 0 , 136)&quot;&gt;&amp;lt;typeHandler&lt;/span&gt;&lt;span class=&quot;pln&quot; style=&quot;color: rgb(0 , 0 , 0)&quot;&gt; &lt;/span&gt;&lt;span class=&quot;atn&quot; style=&quot;color: rgb(102 , 0 , 102)&quot;&gt;handler&lt;/span&gt;&lt;span class=&quot;pun&quot; style=&quot;color: rgb(102 , 102 , 0)&quot;&gt;=&lt;/span&gt;&lt;span class=&quot;atv&quot; style=&quot;color: rgb(0 , 136 , 0)&quot;&gt;&quot;org.mybatis.example.ExampleTypeHandler&quot;&lt;/span&gt;&lt;span class=&quot;tag&quot; style=&quot;color: rgb(0 , 0 , 136)&quot;&gt;/&amp;gt;&lt;/span&gt;&lt;span class=&quot;pln&quot; style=&quot;color: rgb(0 , 0 , 0)&quot;&gt;&#xa;&lt;/span&gt;&lt;span class=&quot;tag&quot; style=&quot;color: rgb(0 , 0 , 136)&quot;&gt;&amp;lt;/typeHandlers&amp;gt;&lt;/span&gt;&lt;/pre&gt;" style="text;whiteSpace=wrap;html=1;" vertex="1" parent="1">
          <mxGeometry x="900" y="1970" width="520" height="100" as="geometry" />
        </mxCell>
        <mxCell id="y6wtNaFaqwbzHfmVruar-57" value="使用时需要在 xml 文件中指定 javaType 或在字段上使用 @MappedTypes 注解&lt;br&gt;优先使用 xml 中的 javaType 类型" style="rounded=0;whiteSpace=wrap;html=1;" vertex="1" parent="1">
          <mxGeometry x="665" y="2100" width="485" height="70" as="geometry" />
        </mxCell>
        <mxCell id="y6wtNaFaqwbzHfmVruar-62" value="" style="edgeStyle=none;rounded=0;orthogonalLoop=1;jettySize=auto;html=1;" edge="1" parent="1" source="y6wtNaFaqwbzHfmVruar-59" target="y6wtNaFaqwbzHfmVruar-61">
          <mxGeometry relative="1" as="geometry" />
        </mxCell>
        <mxCell id="y6wtNaFaqwbzHfmVruar-59" value="处理枚举类型" style="rounded=0;whiteSpace=wrap;html=1;" vertex="1" parent="1">
          <mxGeometry x="670" y="2210" width="120" height="60" as="geometry" />
        </mxCell>
        <mxCell id="y6wtNaFaqwbzHfmVruar-64" value="" style="edgeStyle=none;rounded=0;orthogonalLoop=1;jettySize=auto;html=1;" edge="1" parent="1" source="y6wtNaFaqwbzHfmVruar-61" target="y6wtNaFaqwbzHfmVruar-63">
          <mxGeometry relative="1" as="geometry" />
        </mxCell>
        <mxCell id="y6wtNaFaqwbzHfmVruar-61" value="使用&amp;nbsp;&lt;span style=&quot;color: rgb(221 , 17 , 68) ; font-family: &amp;#34;monaco&amp;#34; , &amp;#34;menlo&amp;#34; , &amp;#34;consolas&amp;#34; , &amp;#34;courier new&amp;#34; , monospace ; background-color: rgb(247 , 247 , 249)&quot;&gt;EnumTypeHandler&lt;/span&gt;&amp;nbsp;或&amp;nbsp;&lt;span style=&quot;color: rgb(221 , 17 , 68) ; font-family: &amp;#34;monaco&amp;#34; , &amp;#34;menlo&amp;#34; , &amp;#34;consolas&amp;#34; , &amp;#34;courier new&amp;#34; , monospace ; background-color: rgb(247 , 247 , 249)&quot;&gt;EnumOrdinalTypeHandler&lt;/span&gt;" style="whiteSpace=wrap;html=1;rounded=0;" vertex="1" parent="1">
          <mxGeometry x="870" y="2210" width="460" height="70" as="geometry" />
        </mxCell>
        <mxCell id="y6wtNaFaqwbzHfmVruar-63" value="&lt;span style=&quot;color: rgb(221 , 17 , 68) ; font-family: &amp;#34;monaco&amp;#34; , &amp;#34;menlo&amp;#34; , &amp;#34;consolas&amp;#34; , &amp;#34;courier new&amp;#34; , monospace ; background-color: rgb(247 , 247 , 249)&quot;&gt;EnumOrdinalTypeHandler&lt;/span&gt;&amp;nbsp;加入到 typeHadler 会把枚举的值存储到数据库，查询的时候并把值映射到枚举值" style="whiteSpace=wrap;html=1;rounded=0;" vertex="1" parent="1">
          <mxGeometry x="1420" y="2207.5" width="350" height="75" as="geometry" />
        </mxCell>
        <mxCell id="y6wtNaFaqwbzHfmVruar-68" style="edgeStyle=none;rounded=0;orthogonalLoop=1;jettySize=auto;html=1;exitX=1;exitY=0.5;exitDx=0;exitDy=0;entryX=0;entryY=0.5;entryDx=0;entryDy=0;" edge="1" parent="1" source="y6wtNaFaqwbzHfmVruar-65" target="y6wtNaFaqwbzHfmVruar-67">
          <mxGeometry relative="1" as="geometry" />
        </mxCell>
        <mxCell id="y6wtNaFaqwbzHfmVruar-65" value="对象工厂" style="rounded=0;whiteSpace=wrap;html=1;" vertex="1" parent="1">
          <mxGeometry x="480" y="2440" width="120" height="60" as="geometry" />
        </mxCell>
        <mxCell id="y6wtNaFaqwbzHfmVruar-72" style="edgeStyle=none;rounded=0;orthogonalLoop=1;jettySize=auto;html=1;exitX=1;exitY=0.5;exitDx=0;exitDy=0;entryX=0.002;entryY=0.433;entryDx=0;entryDy=0;entryPerimeter=0;" edge="1" parent="1" source="y6wtNaFaqwbzHfmVruar-67" target="y6wtNaFaqwbzHfmVruar-69">
          <mxGeometry relative="1" as="geometry" />
        </mxCell>
        <mxCell id="y6wtNaFaqwbzHfmVruar-73" style="edgeStyle=none;rounded=0;orthogonalLoop=1;jettySize=auto;html=1;exitX=1;exitY=0.5;exitDx=0;exitDy=0;entryX=0;entryY=0.5;entryDx=0;entryDy=0;" edge="1" parent="1" source="y6wtNaFaqwbzHfmVruar-67" target="y6wtNaFaqwbzHfmVruar-71">
          <mxGeometry relative="1" as="geometry" />
        </mxCell>
        <mxCell id="y6wtNaFaqwbzHfmVruar-67" value="每次 MyBatis 创建结果对象的新实例时，都是通过使用一个对象工厂 （ObjectFactory）实例来完成实例化。&lt;br&gt;继承&amp;nbsp;&lt;span style=&quot;color: rgb(102 , 0 , 102) ; background-color: rgb(245 , 245 , 245) ; font-family: &amp;#34;monaco&amp;#34; , &amp;#34;menlo&amp;#34; , &amp;#34;consolas&amp;#34; , &amp;#34;courier new&amp;#34; , monospace ; font-size: 13px&quot;&gt;DefaultObjectFactory&lt;/span&gt;&lt;span&gt;&amp;nbsp;可以修改默认行为&lt;/span&gt;" style="rounded=0;whiteSpace=wrap;html=1;" vertex="1" parent="1">
          <mxGeometry x="665" y="2415" width="395" height="115" as="geometry" />
        </mxCell>
        <mxCell id="y6wtNaFaqwbzHfmVruar-69" value="&lt;pre class=&quot;prettyprint&quot; style=&quot;padding: 2px ; font-family: &amp;#34;monaco&amp;#34; , &amp;#34;menlo&amp;#34; , &amp;#34;consolas&amp;#34; , &amp;#34;courier new&amp;#34; , monospace ; font-size: 13px ; color: rgb(51 , 51 , 51) ; border-radius: 4px ; display: block ; margin: 0px 0px 20px ; line-height: 20px ; word-break: break-all ; overflow-wrap: break-word ; background-color: rgb(245 , 245 , 245) ; border: 1px solid rgb(136 , 136 , 136) ; font-style: normal ; font-weight: 400 ; letter-spacing: normal ; text-indent: 0px ; text-transform: none ; word-spacing: 0px&quot;&gt;&lt;span class=&quot;com&quot; style=&quot;color: rgb(136 , 0 , 0)&quot;&gt;&amp;lt;!-- mybatis-config.xml --&amp;gt;&lt;/span&gt;&lt;span class=&quot;pln&quot; style=&quot;color: rgb(0 , 0 , 0)&quot;&gt;&lt;br&gt;&lt;/span&gt;&lt;span class=&quot;tag&quot; style=&quot;color: rgb(0 , 0 , 136)&quot;&gt;&amp;lt;objectFactory&lt;/span&gt;&lt;span class=&quot;pln&quot; style=&quot;color: rgb(0 , 0 , 0)&quot;&gt; &lt;/span&gt;&lt;span class=&quot;atn&quot; style=&quot;color: rgb(102 , 0 , 102)&quot;&gt;type&lt;/span&gt;&lt;span class=&quot;pun&quot; style=&quot;color: rgb(102 , 102 , 0)&quot;&gt;=&lt;/span&gt;&lt;span class=&quot;atv&quot; style=&quot;color: rgb(0 , 136 , 0)&quot;&gt;&quot;org.mybatis.example.ExampleObjectFactory&quot;&lt;/span&gt;&lt;span class=&quot;tag&quot; style=&quot;color: rgb(0 , 0 , 136)&quot;&gt;&amp;gt;&lt;/span&gt;&lt;span class=&quot;pln&quot; style=&quot;color: rgb(0 , 0 , 0)&quot;&gt;&lt;br&gt;  &lt;/span&gt;&lt;span class=&quot;tag&quot; style=&quot;color: rgb(0 , 0 , 136)&quot;&gt;&amp;lt;property&lt;/span&gt;&lt;span class=&quot;pln&quot; style=&quot;color: rgb(0 , 0 , 0)&quot;&gt; &lt;/span&gt;&lt;span class=&quot;atn&quot; style=&quot;color: rgb(102 , 0 , 102)&quot;&gt;name&lt;/span&gt;&lt;span class=&quot;pun&quot; style=&quot;color: rgb(102 , 102 , 0)&quot;&gt;=&lt;/span&gt;&lt;span class=&quot;atv&quot; style=&quot;color: rgb(0 , 136 , 0)&quot;&gt;&quot;someProperty&quot;&lt;/span&gt;&lt;span class=&quot;pln&quot; style=&quot;color: rgb(0 , 0 , 0)&quot;&gt; &lt;/span&gt;&lt;span class=&quot;atn&quot; style=&quot;color: rgb(102 , 0 , 102)&quot;&gt;value&lt;/span&gt;&lt;span class=&quot;pun&quot; style=&quot;color: rgb(102 , 102 , 0)&quot;&gt;=&lt;/span&gt;&lt;span class=&quot;atv&quot; style=&quot;color: rgb(0 , 136 , 0)&quot;&gt;&quot;100&quot;&lt;/span&gt;&lt;span class=&quot;tag&quot; style=&quot;color: rgb(0 , 0 , 136)&quot;&gt;/&amp;gt;&lt;/span&gt;&lt;span class=&quot;pln&quot; style=&quot;color: rgb(0 , 0 , 0)&quot;&gt;&lt;br&gt;&lt;/span&gt;&lt;span class=&quot;tag&quot; style=&quot;color: rgb(0 , 0 , 136)&quot;&gt;&amp;lt;/objectFactory&amp;gt;&lt;/span&gt;&lt;/pre&gt;" style="text;whiteSpace=wrap;html=1;" vertex="1" parent="1">
          <mxGeometry x="1160" y="2370" width="520" height="100" as="geometry" />
        </mxCell>
        <mxCell id="y6wtNaFaqwbzHfmVruar-71" value="&lt;meta charset=&quot;utf-8&quot;&gt;&lt;pre class=&quot;prettyprint&quot; style=&quot;padding: 2px; font-family: monaco, menlo, consolas, &amp;quot;courier new&amp;quot;, monospace; font-size: 13px; color: rgb(51, 51, 51); border-radius: 4px; display: block; margin: 0px 0px 20px; line-height: 20px; word-break: break-all; overflow-wrap: break-word; background-color: rgb(245, 245, 245); border: 1px solid rgb(136, 136, 136); font-style: normal; font-weight: 400; letter-spacing: normal; text-indent: 0px; text-transform: none; word-spacing: 0px;&quot;&gt;&lt;span class=&quot;com&quot; style=&quot;color: rgb(136 , 0 , 0)&quot;&gt;// ExampleObjectFactory.java&lt;/span&gt;&lt;span class=&quot;pln&quot; style=&quot;color: rgb(0 , 0 , 0)&quot;&gt;&#xa;&lt;/span&gt;&lt;span class=&quot;kwd&quot; style=&quot;color: rgb(0 , 0 , 136)&quot;&gt;public&lt;/span&gt;&lt;span class=&quot;pln&quot; style=&quot;color: rgb(0 , 0 , 0)&quot;&gt; &lt;/span&gt;&lt;span class=&quot;kwd&quot; style=&quot;color: rgb(0 , 0 , 136)&quot;&gt;class&lt;/span&gt;&lt;span class=&quot;pln&quot; style=&quot;color: rgb(0 , 0 , 0)&quot;&gt; &lt;/span&gt;&lt;span class=&quot;typ&quot; style=&quot;color: rgb(102 , 0 , 102)&quot;&gt;ExampleObjectFactory&lt;/span&gt;&lt;span class=&quot;pln&quot; style=&quot;color: rgb(0 , 0 , 0)&quot;&gt; &lt;/span&gt;&lt;span class=&quot;kwd&quot; style=&quot;color: rgb(0 , 0 , 136)&quot;&gt;extends&lt;/span&gt;&lt;span class=&quot;pln&quot; style=&quot;color: rgb(0 , 0 , 0)&quot;&gt; &lt;/span&gt;&lt;span class=&quot;typ&quot; style=&quot;color: rgb(102 , 0 , 102)&quot;&gt;DefaultObjectFactory&lt;/span&gt;&lt;span class=&quot;pln&quot; style=&quot;color: rgb(0 , 0 , 0)&quot;&gt; &lt;/span&gt;&lt;span class=&quot;pun&quot; style=&quot;color: rgb(102 , 102 , 0)&quot;&gt;{&lt;/span&gt;&lt;span class=&quot;pln&quot; style=&quot;color: rgb(0 , 0 , 0)&quot;&gt;&#xa;  &lt;/span&gt;&lt;span class=&quot;kwd&quot; style=&quot;color: rgb(0 , 0 , 136)&quot;&gt;public&lt;/span&gt;&lt;span class=&quot;pln&quot; style=&quot;color: rgb(0 , 0 , 0)&quot;&gt; &lt;/span&gt;&lt;span class=&quot;typ&quot; style=&quot;color: rgb(102 , 0 , 102)&quot;&gt;Object&lt;/span&gt;&lt;span class=&quot;pln&quot; style=&quot;color: rgb(0 , 0 , 0)&quot;&gt; create&lt;/span&gt;&lt;span class=&quot;pun&quot; style=&quot;color: rgb(102 , 102 , 0)&quot;&gt;(&lt;/span&gt;&lt;span class=&quot;typ&quot; style=&quot;color: rgb(102 , 0 , 102)&quot;&gt;Class&lt;/span&gt;&lt;span class=&quot;pln&quot; style=&quot;color: rgb(0 , 0 , 0)&quot;&gt; type&lt;/span&gt;&lt;span class=&quot;pun&quot; style=&quot;color: rgb(102 , 102 , 0)&quot;&gt;)&lt;/span&gt;&lt;span class=&quot;pln&quot; style=&quot;color: rgb(0 , 0 , 0)&quot;&gt; &lt;/span&gt;&lt;span class=&quot;pun&quot; style=&quot;color: rgb(102 , 102 , 0)&quot;&gt;{&lt;/span&gt;&lt;span class=&quot;pln&quot; style=&quot;color: rgb(0 , 0 , 0)&quot;&gt;&#xa;    &lt;/span&gt;&lt;span class=&quot;kwd&quot; style=&quot;color: rgb(0 , 0 , 136)&quot;&gt;return&lt;/span&gt;&lt;span class=&quot;pln&quot; style=&quot;color: rgb(0 , 0 , 0)&quot;&gt; &lt;/span&gt;&lt;span class=&quot;kwd&quot; style=&quot;color: rgb(0 , 0 , 136)&quot;&gt;super&lt;/span&gt;&lt;span class=&quot;pun&quot; style=&quot;color: rgb(102 , 102 , 0)&quot;&gt;.&lt;/span&gt;&lt;span class=&quot;pln&quot; style=&quot;color: rgb(0 , 0 , 0)&quot;&gt;create&lt;/span&gt;&lt;span class=&quot;pun&quot; style=&quot;color: rgb(102 , 102 , 0)&quot;&gt;(&lt;/span&gt;&lt;span class=&quot;pln&quot; style=&quot;color: rgb(0 , 0 , 0)&quot;&gt;type&lt;/span&gt;&lt;span class=&quot;pun&quot; style=&quot;color: rgb(102 , 102 , 0)&quot;&gt;);&lt;/span&gt;&lt;span class=&quot;pln&quot; style=&quot;color: rgb(0 , 0 , 0)&quot;&gt;&#xa;  &lt;/span&gt;&lt;span class=&quot;pun&quot; style=&quot;color: rgb(102 , 102 , 0)&quot;&gt;}&lt;/span&gt;&lt;span class=&quot;pln&quot; style=&quot;color: rgb(0 , 0 , 0)&quot;&gt;&#xa;  &lt;/span&gt;&lt;span class=&quot;kwd&quot; style=&quot;color: rgb(0 , 0 , 136)&quot;&gt;public&lt;/span&gt;&lt;span class=&quot;pln&quot; style=&quot;color: rgb(0 , 0 , 0)&quot;&gt; &lt;/span&gt;&lt;span class=&quot;typ&quot; style=&quot;color: rgb(102 , 0 , 102)&quot;&gt;Object&lt;/span&gt;&lt;span class=&quot;pln&quot; style=&quot;color: rgb(0 , 0 , 0)&quot;&gt; create&lt;/span&gt;&lt;span class=&quot;pun&quot; style=&quot;color: rgb(102 , 102 , 0)&quot;&gt;(&lt;/span&gt;&lt;span class=&quot;typ&quot; style=&quot;color: rgb(102 , 0 , 102)&quot;&gt;Class&lt;/span&gt;&lt;span class=&quot;pln&quot; style=&quot;color: rgb(0 , 0 , 0)&quot;&gt; type&lt;/span&gt;&lt;span class=&quot;pun&quot; style=&quot;color: rgb(102 , 102 , 0)&quot;&gt;,&lt;/span&gt;&lt;span class=&quot;pln&quot; style=&quot;color: rgb(0 , 0 , 0)&quot;&gt; &lt;/span&gt;&lt;span class=&quot;typ&quot; style=&quot;color: rgb(102 , 0 , 102)&quot;&gt;List&lt;/span&gt;&lt;span class=&quot;pun&quot; style=&quot;color: rgb(102 , 102 , 0)&quot;&gt;&amp;lt;&lt;/span&gt;&lt;span class=&quot;typ&quot; style=&quot;color: rgb(102 , 0 , 102)&quot;&gt;Class&lt;/span&gt;&lt;span class=&quot;pun&quot; style=&quot;color: rgb(102 , 102 , 0)&quot;&gt;&amp;gt;&lt;/span&gt;&lt;span class=&quot;pln&quot; style=&quot;color: rgb(0 , 0 , 0)&quot;&gt; constructorArgTypes&lt;/span&gt;&lt;span class=&quot;pun&quot; style=&quot;color: rgb(102 , 102 , 0)&quot;&gt;,&lt;/span&gt;&lt;span class=&quot;pln&quot; style=&quot;color: rgb(0 , 0 , 0)&quot;&gt; &lt;/span&gt;&lt;span class=&quot;typ&quot; style=&quot;color: rgb(102 , 0 , 102)&quot;&gt;List&lt;/span&gt;&lt;span class=&quot;pun&quot; style=&quot;color: rgb(102 , 102 , 0)&quot;&gt;&amp;lt;&lt;/span&gt;&lt;span class=&quot;typ&quot; style=&quot;color: rgb(102 , 0 , 102)&quot;&gt;Object&lt;/span&gt;&lt;span class=&quot;pun&quot; style=&quot;color: rgb(102 , 102 , 0)&quot;&gt;&amp;gt;&lt;/span&gt;&lt;span class=&quot;pln&quot; style=&quot;color: rgb(0 , 0 , 0)&quot;&gt; constructorArgs&lt;/span&gt;&lt;span class=&quot;pun&quot; style=&quot;color: rgb(102 , 102 , 0)&quot;&gt;)&lt;/span&gt;&lt;span class=&quot;pln&quot; style=&quot;color: rgb(0 , 0 , 0)&quot;&gt; &lt;/span&gt;&lt;span class=&quot;pun&quot; style=&quot;color: rgb(102 , 102 , 0)&quot;&gt;{&lt;/span&gt;&lt;span class=&quot;pln&quot; style=&quot;color: rgb(0 , 0 , 0)&quot;&gt;&#xa;    &lt;/span&gt;&lt;span class=&quot;kwd&quot; style=&quot;color: rgb(0 , 0 , 136)&quot;&gt;return&lt;/span&gt;&lt;span class=&quot;pln&quot; style=&quot;color: rgb(0 , 0 , 0)&quot;&gt; &lt;/span&gt;&lt;span class=&quot;kwd&quot; style=&quot;color: rgb(0 , 0 , 136)&quot;&gt;super&lt;/span&gt;&lt;span class=&quot;pun&quot; style=&quot;color: rgb(102 , 102 , 0)&quot;&gt;.&lt;/span&gt;&lt;span class=&quot;pln&quot; style=&quot;color: rgb(0 , 0 , 0)&quot;&gt;create&lt;/span&gt;&lt;span class=&quot;pun&quot; style=&quot;color: rgb(102 , 102 , 0)&quot;&gt;(&lt;/span&gt;&lt;span class=&quot;pln&quot; style=&quot;color: rgb(0 , 0 , 0)&quot;&gt;type&lt;/span&gt;&lt;span class=&quot;pun&quot; style=&quot;color: rgb(102 , 102 , 0)&quot;&gt;,&lt;/span&gt;&lt;span class=&quot;pln&quot; style=&quot;color: rgb(0 , 0 , 0)&quot;&gt; constructorArgTypes&lt;/span&gt;&lt;span class=&quot;pun&quot; style=&quot;color: rgb(102 , 102 , 0)&quot;&gt;,&lt;/span&gt;&lt;span class=&quot;pln&quot; style=&quot;color: rgb(0 , 0 , 0)&quot;&gt; constructorArgs&lt;/span&gt;&lt;span class=&quot;pun&quot; style=&quot;color: rgb(102 , 102 , 0)&quot;&gt;);&lt;/span&gt;&lt;span class=&quot;pln&quot; style=&quot;color: rgb(0 , 0 , 0)&quot;&gt;&#xa;  &lt;/span&gt;&lt;span class=&quot;pun&quot; style=&quot;color: rgb(102 , 102 , 0)&quot;&gt;}&lt;/span&gt;&lt;span class=&quot;pln&quot; style=&quot;color: rgb(0 , 0 , 0)&quot;&gt;&#xa;  &lt;/span&gt;&lt;span class=&quot;kwd&quot; style=&quot;color: rgb(0 , 0 , 136)&quot;&gt;public&lt;/span&gt;&lt;span class=&quot;pln&quot; style=&quot;color: rgb(0 , 0 , 0)&quot;&gt; &lt;/span&gt;&lt;span class=&quot;kwd&quot; style=&quot;color: rgb(0 , 0 , 136)&quot;&gt;void&lt;/span&gt;&lt;span class=&quot;pln&quot; style=&quot;color: rgb(0 , 0 , 0)&quot;&gt; setProperties&lt;/span&gt;&lt;span class=&quot;pun&quot; style=&quot;color: rgb(102 , 102 , 0)&quot;&gt;(&lt;/span&gt;&lt;span class=&quot;typ&quot; style=&quot;color: rgb(102 , 0 , 102)&quot;&gt;Properties&lt;/span&gt;&lt;span class=&quot;pln&quot; style=&quot;color: rgb(0 , 0 , 0)&quot;&gt; properties&lt;/span&gt;&lt;span class=&quot;pun&quot; style=&quot;color: rgb(102 , 102 , 0)&quot;&gt;)&lt;/span&gt;&lt;span class=&quot;pln&quot; style=&quot;color: rgb(0 , 0 , 0)&quot;&gt; &lt;/span&gt;&lt;span class=&quot;pun&quot; style=&quot;color: rgb(102 , 102 , 0)&quot;&gt;{&lt;/span&gt;&lt;span class=&quot;pln&quot; style=&quot;color: rgb(0 , 0 , 0)&quot;&gt;&#xa;    &lt;/span&gt;&lt;span class=&quot;kwd&quot; style=&quot;color: rgb(0 , 0 , 136)&quot;&gt;super&lt;/span&gt;&lt;span class=&quot;pun&quot; style=&quot;color: rgb(102 , 102 , 0)&quot;&gt;.&lt;/span&gt;&lt;span class=&quot;pln&quot; style=&quot;color: rgb(0 , 0 , 0)&quot;&gt;setProperties&lt;/span&gt;&lt;span class=&quot;pun&quot; style=&quot;color: rgb(102 , 102 , 0)&quot;&gt;(&lt;/span&gt;&lt;span class=&quot;pln&quot; style=&quot;color: rgb(0 , 0 , 0)&quot;&gt;properties&lt;/span&gt;&lt;span class=&quot;pun&quot; style=&quot;color: rgb(102 , 102 , 0)&quot;&gt;);&lt;/span&gt;&lt;span class=&quot;pln&quot; style=&quot;color: rgb(0 , 0 , 0)&quot;&gt;&#xa;  &lt;/span&gt;&lt;span class=&quot;pun&quot; style=&quot;color: rgb(102 , 102 , 0)&quot;&gt;}&lt;/span&gt;&lt;span class=&quot;pln&quot; style=&quot;color: rgb(0 , 0 , 0)&quot;&gt;&#xa;  &lt;/span&gt;&lt;span class=&quot;kwd&quot; style=&quot;color: rgb(0 , 0 , 136)&quot;&gt;public&lt;/span&gt;&lt;span class=&quot;pln&quot; style=&quot;color: rgb(0 , 0 , 0)&quot;&gt; &lt;/span&gt;&lt;span class=&quot;pun&quot; style=&quot;color: rgb(102 , 102 , 0)&quot;&gt;&amp;lt;&lt;/span&gt;&lt;span class=&quot;pln&quot; style=&quot;color: rgb(0 , 0 , 0)&quot;&gt;T&lt;/span&gt;&lt;span class=&quot;pun&quot; style=&quot;color: rgb(102 , 102 , 0)&quot;&gt;&amp;gt;&lt;/span&gt;&lt;span class=&quot;pln&quot; style=&quot;color: rgb(0 , 0 , 0)&quot;&gt; &lt;/span&gt;&lt;span class=&quot;kwd&quot; style=&quot;color: rgb(0 , 0 , 136)&quot;&gt;boolean&lt;/span&gt;&lt;span class=&quot;pln&quot; style=&quot;color: rgb(0 , 0 , 0)&quot;&gt; isCollection&lt;/span&gt;&lt;span class=&quot;pun&quot; style=&quot;color: rgb(102 , 102 , 0)&quot;&gt;(&lt;/span&gt;&lt;span class=&quot;typ&quot; style=&quot;color: rgb(102 , 0 , 102)&quot;&gt;Class&lt;/span&gt;&lt;span class=&quot;pun&quot; style=&quot;color: rgb(102 , 102 , 0)&quot;&gt;&amp;lt;&lt;/span&gt;&lt;span class=&quot;pln&quot; style=&quot;color: rgb(0 , 0 , 0)&quot;&gt;T&lt;/span&gt;&lt;span class=&quot;pun&quot; style=&quot;color: rgb(102 , 102 , 0)&quot;&gt;&amp;gt;&lt;/span&gt;&lt;span class=&quot;pln&quot; style=&quot;color: rgb(0 , 0 , 0)&quot;&gt; type&lt;/span&gt;&lt;span class=&quot;pun&quot; style=&quot;color: rgb(102 , 102 , 0)&quot;&gt;)&lt;/span&gt;&lt;span class=&quot;pln&quot; style=&quot;color: rgb(0 , 0 , 0)&quot;&gt; &lt;/span&gt;&lt;span class=&quot;pun&quot; style=&quot;color: rgb(102 , 102 , 0)&quot;&gt;{&lt;/span&gt;&lt;span class=&quot;pln&quot; style=&quot;color: rgb(0 , 0 , 0)&quot;&gt;&#xa;    &lt;/span&gt;&lt;span class=&quot;kwd&quot; style=&quot;color: rgb(0 , 0 , 136)&quot;&gt;return&lt;/span&gt;&lt;span class=&quot;pln&quot; style=&quot;color: rgb(0 , 0 , 0)&quot;&gt; &lt;/span&gt;&lt;span class=&quot;typ&quot; style=&quot;color: rgb(102 , 0 , 102)&quot;&gt;Collection&lt;/span&gt;&lt;span class=&quot;pun&quot; style=&quot;color: rgb(102 , 102 , 0)&quot;&gt;.&lt;/span&gt;&lt;span class=&quot;kwd&quot; style=&quot;color: rgb(0 , 0 , 136)&quot;&gt;class&lt;/span&gt;&lt;span class=&quot;pun&quot; style=&quot;color: rgb(102 , 102 , 0)&quot;&gt;.&lt;/span&gt;&lt;span class=&quot;pln&quot; style=&quot;color: rgb(0 , 0 , 0)&quot;&gt;isAssignableFrom&lt;/span&gt;&lt;span class=&quot;pun&quot; style=&quot;color: rgb(102 , 102 , 0)&quot;&gt;(&lt;/span&gt;&lt;span class=&quot;pln&quot; style=&quot;color: rgb(0 , 0 , 0)&quot;&gt;type&lt;/span&gt;&lt;span class=&quot;pun&quot; style=&quot;color: rgb(102 , 102 , 0)&quot;&gt;);&lt;/span&gt;&lt;span class=&quot;pln&quot; style=&quot;color: rgb(0 , 0 , 0)&quot;&gt;&#xa;  &lt;/span&gt;&lt;span class=&quot;pun&quot; style=&quot;color: rgb(102 , 102 , 0)&quot;&gt;}&lt;br&gt;}&lt;/span&gt;&lt;/pre&gt;" style="text;whiteSpace=wrap;html=1;" vertex="1" parent="1">
          <mxGeometry x="1160" y="2470" width="785" height="320" as="geometry" />
        </mxCell>
        <mxCell id="y6wtNaFaqwbzHfmVruar-77" style="edgeStyle=none;rounded=0;orthogonalLoop=1;jettySize=auto;html=1;exitX=1;exitY=0.5;exitDx=0;exitDy=0;entryX=0;entryY=0.5;entryDx=0;entryDy=0;" edge="1" parent="1" source="y6wtNaFaqwbzHfmVruar-74" target="y6wtNaFaqwbzHfmVruar-76">
          <mxGeometry relative="1" as="geometry" />
        </mxCell>
        <mxCell id="y6wtNaFaqwbzHfmVruar-74" value="插件" style="rounded=0;whiteSpace=wrap;html=1;" vertex="1" parent="1">
          <mxGeometry x="480" y="3050" width="120" height="60" as="geometry" />
        </mxCell>
        <mxCell id="y6wtNaFaqwbzHfmVruar-79" style="edgeStyle=none;rounded=0;orthogonalLoop=1;jettySize=auto;html=1;exitX=1;exitY=0.5;exitDx=0;exitDy=0;entryX=0;entryY=0.5;entryDx=0;entryDy=0;" edge="1" parent="1" source="y6wtNaFaqwbzHfmVruar-76" target="y6wtNaFaqwbzHfmVruar-78">
          <mxGeometry relative="1" as="geometry" />
        </mxCell>
        <mxCell id="y6wtNaFaqwbzHfmVruar-76" value="&lt;meta charset=&quot;utf-8&quot;&gt;&lt;p style=&quot;margin: 0px 0px 10px; color: rgb(51, 51, 51); font-family: &amp;quot;helvetica neue&amp;quot;, helvetica, arial, sans-serif; font-size: 14px; font-style: normal; font-weight: 400; letter-spacing: normal; text-indent: 0px; text-transform: none; word-spacing: 0px; background-color: rgb(255, 255, 255);&quot;&gt;MyBatis 允许你在映射语句执行过程中的某一点进行拦截调用。默认情况下，MyBatis 允许使用插件来拦截的方法调用包括：&lt;/p&gt;&lt;ul style=&quot;padding: 0px; margin: 0px 0px 10px 25px; color: rgb(51, 51, 51); font-family: &amp;quot;helvetica neue&amp;quot;, helvetica, arial, sans-serif; font-size: 14px; font-style: normal; font-weight: 400; letter-spacing: normal; text-indent: 0px; text-transform: none; word-spacing: 0px; background-color: rgb(255, 255, 255);&quot;&gt;&lt;li style=&quot;line-height: 20px ; color: rgb(64 , 64 , 64)&quot;&gt;Executor (update, query, flushStatements, commit, rollback, getTransaction, close, isClosed)&lt;/li&gt;&lt;li style=&quot;line-height: 20px ; color: rgb(64 , 64 , 64)&quot;&gt;ParameterHandler (getParameterObject, setParameters)&lt;/li&gt;&lt;li style=&quot;line-height: 20px ; color: rgb(64 , 64 , 64)&quot;&gt;ResultSetHandler (handleResultSets, handleOutputParameters)&lt;/li&gt;&lt;li style=&quot;line-height: 20px ; color: rgb(64 , 64 , 64)&quot;&gt;StatementHandler (prepare, parameterize, batch, update, query)&lt;/li&gt;&lt;/ul&gt;" style="text;whiteSpace=wrap;html=1;" vertex="1" parent="1">
          <mxGeometry x="700" y="3000" width="550" height="160" as="geometry" />
        </mxCell>
        <mxCell id="y6wtNaFaqwbzHfmVruar-78" value="&lt;meta charset=&quot;utf-8&quot;&gt;&lt;div class=&quot;source&quot; style=&quot;color: rgb(51, 51, 51); font-family: &amp;quot;helvetica neue&amp;quot;, helvetica, arial, sans-serif; font-size: 14px; font-style: normal; font-weight: 400; letter-spacing: normal; text-indent: 0px; text-transform: none; word-spacing: 0px; background-color: rgb(255, 255, 255);&quot;&gt;&lt;pre class=&quot;prettyprint&quot; style=&quot;padding: 2px; font-family: monaco, menlo, consolas, &amp;quot;courier new&amp;quot;, monospace; font-size: 13px; color: rgb(51, 51, 51); border-radius: 4px; display: block; margin: 0px 0px 20px; line-height: 20px; word-break: break-all; overflow-wrap: break-word; background-color: rgb(245, 245, 245); border: 1px solid rgb(136, 136, 136);&quot;&gt;&lt;span class=&quot;com&quot; style=&quot;color: rgb(136 , 0 , 0)&quot;&gt;// ExamplePlugin.java&lt;/span&gt;&lt;span class=&quot;pln&quot; style=&quot;color: rgb(0 , 0 , 0)&quot;&gt;&#xa;&lt;/span&gt;&lt;span class=&quot;lit&quot; style=&quot;color: rgb(0 , 102 , 102)&quot;&gt;@Intercepts&lt;/span&gt;&lt;span class=&quot;pun&quot; style=&quot;color: rgb(102 , 102 , 0)&quot;&gt;({&lt;/span&gt;&lt;span class=&quot;lit&quot; style=&quot;color: rgb(0 , 102 , 102)&quot;&gt;@Signature&lt;/span&gt;&lt;span class=&quot;pun&quot; style=&quot;color: rgb(102 , 102 , 0)&quot;&gt;(&lt;/span&gt;&lt;span class=&quot;pln&quot; style=&quot;color: rgb(0 , 0 , 0)&quot;&gt;&#xa;  type&lt;/span&gt;&lt;span class=&quot;pun&quot; style=&quot;color: rgb(102 , 102 , 0)&quot;&gt;=&lt;/span&gt;&lt;span class=&quot;pln&quot; style=&quot;color: rgb(0 , 0 , 0)&quot;&gt; &lt;/span&gt;&lt;span class=&quot;typ&quot; style=&quot;color: rgb(102 , 0 , 102)&quot;&gt;Executor&lt;/span&gt;&lt;span class=&quot;pun&quot; style=&quot;color: rgb(102 , 102 , 0)&quot;&gt;.&lt;/span&gt;&lt;span class=&quot;kwd&quot; style=&quot;color: rgb(0 , 0 , 136)&quot;&gt;class&lt;/span&gt;&lt;span class=&quot;pun&quot; style=&quot;color: rgb(102 , 102 , 0)&quot;&gt;,&lt;/span&gt;&lt;span class=&quot;pln&quot; style=&quot;color: rgb(0 , 0 , 0)&quot;&gt;&#xa;  method &lt;/span&gt;&lt;span class=&quot;pun&quot; style=&quot;color: rgb(102 , 102 , 0)&quot;&gt;=&lt;/span&gt;&lt;span class=&quot;pln&quot; style=&quot;color: rgb(0 , 0 , 0)&quot;&gt; &lt;/span&gt;&lt;span class=&quot;str&quot; style=&quot;color: rgb(0 , 136 , 0)&quot;&gt;&quot;update&quot;&lt;/span&gt;&lt;span class=&quot;pun&quot; style=&quot;color: rgb(102 , 102 , 0)&quot;&gt;,&lt;/span&gt;&lt;span class=&quot;pln&quot; style=&quot;color: rgb(0 , 0 , 0)&quot;&gt;&#xa;  args &lt;/span&gt;&lt;span class=&quot;pun&quot; style=&quot;color: rgb(102 , 102 , 0)&quot;&gt;=&lt;/span&gt;&lt;span class=&quot;pln&quot; style=&quot;color: rgb(0 , 0 , 0)&quot;&gt; &lt;/span&gt;&lt;span class=&quot;pun&quot; style=&quot;color: rgb(102 , 102 , 0)&quot;&gt;{&lt;/span&gt;&lt;span class=&quot;typ&quot; style=&quot;color: rgb(102 , 0 , 102)&quot;&gt;MappedStatement&lt;/span&gt;&lt;span class=&quot;pun&quot; style=&quot;color: rgb(102 , 102 , 0)&quot;&gt;.&lt;/span&gt;&lt;span class=&quot;kwd&quot; style=&quot;color: rgb(0 , 0 , 136)&quot;&gt;class&lt;/span&gt;&lt;span class=&quot;pun&quot; style=&quot;color: rgb(102 , 102 , 0)&quot;&gt;,&lt;/span&gt;&lt;span class=&quot;typ&quot; style=&quot;color: rgb(102 , 0 , 102)&quot;&gt;Object&lt;/span&gt;&lt;span class=&quot;pun&quot; style=&quot;color: rgb(102 , 102 , 0)&quot;&gt;.&lt;/span&gt;&lt;span class=&quot;kwd&quot; style=&quot;color: rgb(0 , 0 , 136)&quot;&gt;class&lt;/span&gt;&lt;span class=&quot;pun&quot; style=&quot;color: rgb(102 , 102 , 0)&quot;&gt;})})&lt;/span&gt;&lt;span class=&quot;pln&quot; style=&quot;color: rgb(0 , 0 , 0)&quot;&gt;&#xa;&lt;/span&gt;&lt;span class=&quot;kwd&quot; style=&quot;color: rgb(0 , 0 , 136)&quot;&gt;public&lt;/span&gt;&lt;span class=&quot;pln&quot; style=&quot;color: rgb(0 , 0 , 0)&quot;&gt; &lt;/span&gt;&lt;span class=&quot;kwd&quot; style=&quot;color: rgb(0 , 0 , 136)&quot;&gt;class&lt;/span&gt;&lt;span class=&quot;pln&quot; style=&quot;color: rgb(0 , 0 , 0)&quot;&gt; &lt;/span&gt;&lt;span class=&quot;typ&quot; style=&quot;color: rgb(102 , 0 , 102)&quot;&gt;ExamplePlugin&lt;/span&gt;&lt;span class=&quot;pln&quot; style=&quot;color: rgb(0 , 0 , 0)&quot;&gt; &lt;/span&gt;&lt;span class=&quot;kwd&quot; style=&quot;color: rgb(0 , 0 , 136)&quot;&gt;implements&lt;/span&gt;&lt;span class=&quot;pln&quot; style=&quot;color: rgb(0 , 0 , 0)&quot;&gt; &lt;/span&gt;&lt;span class=&quot;typ&quot; style=&quot;color: rgb(102 , 0 , 102)&quot;&gt;Interceptor&lt;/span&gt;&lt;span class=&quot;pln&quot; style=&quot;color: rgb(0 , 0 , 0)&quot;&gt; &lt;/span&gt;&lt;span class=&quot;pun&quot; style=&quot;color: rgb(102 , 102 , 0)&quot;&gt;{&lt;/span&gt;&lt;span class=&quot;pln&quot; style=&quot;color: rgb(0 , 0 , 0)&quot;&gt;&#xa;  &lt;/span&gt;&lt;span class=&quot;kwd&quot; style=&quot;color: rgb(0 , 0 , 136)&quot;&gt;private&lt;/span&gt;&lt;span class=&quot;pln&quot; style=&quot;color: rgb(0 , 0 , 0)&quot;&gt; &lt;/span&gt;&lt;span class=&quot;typ&quot; style=&quot;color: rgb(102 , 0 , 102)&quot;&gt;Properties&lt;/span&gt;&lt;span class=&quot;pln&quot; style=&quot;color: rgb(0 , 0 , 0)&quot;&gt; properties &lt;/span&gt;&lt;span class=&quot;pun&quot; style=&quot;color: rgb(102 , 102 , 0)&quot;&gt;=&lt;/span&gt;&lt;span class=&quot;pln&quot; style=&quot;color: rgb(0 , 0 , 0)&quot;&gt; &lt;/span&gt;&lt;span class=&quot;kwd&quot; style=&quot;color: rgb(0 , 0 , 136)&quot;&gt;new&lt;/span&gt;&lt;span class=&quot;pln&quot; style=&quot;color: rgb(0 , 0 , 0)&quot;&gt; &lt;/span&gt;&lt;span class=&quot;typ&quot; style=&quot;color: rgb(102 , 0 , 102)&quot;&gt;Properties&lt;/span&gt;&lt;span class=&quot;pun&quot; style=&quot;color: rgb(102 , 102 , 0)&quot;&gt;();&lt;/span&gt;&lt;span class=&quot;pln&quot; style=&quot;color: rgb(0 , 0 , 0)&quot;&gt;&#xa;  &lt;/span&gt;&lt;span class=&quot;kwd&quot; style=&quot;color: rgb(0 , 0 , 136)&quot;&gt;public&lt;/span&gt;&lt;span class=&quot;pln&quot; style=&quot;color: rgb(0 , 0 , 0)&quot;&gt; &lt;/span&gt;&lt;span class=&quot;typ&quot; style=&quot;color: rgb(102 , 0 , 102)&quot;&gt;Object&lt;/span&gt;&lt;span class=&quot;pln&quot; style=&quot;color: rgb(0 , 0 , 0)&quot;&gt; intercept&lt;/span&gt;&lt;span class=&quot;pun&quot; style=&quot;color: rgb(102 , 102 , 0)&quot;&gt;(&lt;/span&gt;&lt;span class=&quot;typ&quot; style=&quot;color: rgb(102 , 0 , 102)&quot;&gt;Invocation&lt;/span&gt;&lt;span class=&quot;pln&quot; style=&quot;color: rgb(0 , 0 , 0)&quot;&gt; invocation&lt;/span&gt;&lt;span class=&quot;pun&quot; style=&quot;color: rgb(102 , 102 , 0)&quot;&gt;)&lt;/span&gt;&lt;span class=&quot;pln&quot; style=&quot;color: rgb(0 , 0 , 0)&quot;&gt; &lt;/span&gt;&lt;span class=&quot;kwd&quot; style=&quot;color: rgb(0 , 0 , 136)&quot;&gt;throws&lt;/span&gt;&lt;span class=&quot;pln&quot; style=&quot;color: rgb(0 , 0 , 0)&quot;&gt; &lt;/span&gt;&lt;span class=&quot;typ&quot; style=&quot;color: rgb(102 , 0 , 102)&quot;&gt;Throwable&lt;/span&gt;&lt;span class=&quot;pln&quot; style=&quot;color: rgb(0 , 0 , 0)&quot;&gt; &lt;/span&gt;&lt;span class=&quot;pun&quot; style=&quot;color: rgb(102 , 102 , 0)&quot;&gt;{&lt;/span&gt;&lt;span class=&quot;pln&quot; style=&quot;color: rgb(0 , 0 , 0)&quot;&gt;&#xa;    &lt;/span&gt;&lt;span class=&quot;com&quot; style=&quot;color: rgb(136 , 0 , 0)&quot;&gt;// implement pre processing if need&lt;/span&gt;&lt;span class=&quot;pln&quot; style=&quot;color: rgb(0 , 0 , 0)&quot;&gt;&#xa;    &lt;/span&gt;&lt;span class=&quot;typ&quot; style=&quot;color: rgb(102 , 0 , 102)&quot;&gt;Object&lt;/span&gt;&lt;span class=&quot;pln&quot; style=&quot;color: rgb(0 , 0 , 0)&quot;&gt; returnObject &lt;/span&gt;&lt;span class=&quot;pun&quot; style=&quot;color: rgb(102 , 102 , 0)&quot;&gt;=&lt;/span&gt;&lt;span class=&quot;pln&quot; style=&quot;color: rgb(0 , 0 , 0)&quot;&gt; invocation&lt;/span&gt;&lt;span class=&quot;pun&quot; style=&quot;color: rgb(102 , 102 , 0)&quot;&gt;.&lt;/span&gt;&lt;span class=&quot;pln&quot; style=&quot;color: rgb(0 , 0 , 0)&quot;&gt;proceed&lt;/span&gt;&lt;span class=&quot;pun&quot; style=&quot;color: rgb(102 , 102 , 0)&quot;&gt;();&lt;/span&gt;&lt;span class=&quot;pln&quot; style=&quot;color: rgb(0 , 0 , 0)&quot;&gt;&#xa;    &lt;/span&gt;&lt;span class=&quot;com&quot; style=&quot;color: rgb(136 , 0 , 0)&quot;&gt;// implement post processing if need&lt;/span&gt;&lt;span class=&quot;pln&quot; style=&quot;color: rgb(0 , 0 , 0)&quot;&gt;&#xa;    &lt;/span&gt;&lt;span class=&quot;kwd&quot; style=&quot;color: rgb(0 , 0 , 136)&quot;&gt;return&lt;/span&gt;&lt;span class=&quot;pln&quot; style=&quot;color: rgb(0 , 0 , 0)&quot;&gt; returnObject&lt;/span&gt;&lt;span class=&quot;pun&quot; style=&quot;color: rgb(102 , 102 , 0)&quot;&gt;;&lt;/span&gt;&lt;span class=&quot;pln&quot; style=&quot;color: rgb(0 , 0 , 0)&quot;&gt;&#xa;  &lt;/span&gt;&lt;span class=&quot;pun&quot; style=&quot;color: rgb(102 , 102 , 0)&quot;&gt;}&lt;/span&gt;&lt;span class=&quot;pln&quot; style=&quot;color: rgb(0 , 0 , 0)&quot;&gt;&#xa;  &lt;/span&gt;&lt;span class=&quot;kwd&quot; style=&quot;color: rgb(0 , 0 , 136)&quot;&gt;public&lt;/span&gt;&lt;span class=&quot;pln&quot; style=&quot;color: rgb(0 , 0 , 0)&quot;&gt; &lt;/span&gt;&lt;span class=&quot;kwd&quot; style=&quot;color: rgb(0 , 0 , 136)&quot;&gt;void&lt;/span&gt;&lt;span class=&quot;pln&quot; style=&quot;color: rgb(0 , 0 , 0)&quot;&gt; setProperties&lt;/span&gt;&lt;span class=&quot;pun&quot; style=&quot;color: rgb(102 , 102 , 0)&quot;&gt;(&lt;/span&gt;&lt;span class=&quot;typ&quot; style=&quot;color: rgb(102 , 0 , 102)&quot;&gt;Properties&lt;/span&gt;&lt;span class=&quot;pln&quot; style=&quot;color: rgb(0 , 0 , 0)&quot;&gt; properties&lt;/span&gt;&lt;span class=&quot;pun&quot; style=&quot;color: rgb(102 , 102 , 0)&quot;&gt;)&lt;/span&gt;&lt;span class=&quot;pln&quot; style=&quot;color: rgb(0 , 0 , 0)&quot;&gt; &lt;/span&gt;&lt;span class=&quot;pun&quot; style=&quot;color: rgb(102 , 102 , 0)&quot;&gt;{&lt;/span&gt;&lt;span class=&quot;pln&quot; style=&quot;color: rgb(0 , 0 , 0)&quot;&gt;&#xa;    &lt;/span&gt;&lt;span class=&quot;kwd&quot; style=&quot;color: rgb(0 , 0 , 136)&quot;&gt;this&lt;/span&gt;&lt;span class=&quot;pun&quot; style=&quot;color: rgb(102 , 102 , 0)&quot;&gt;.&lt;/span&gt;&lt;span class=&quot;pln&quot; style=&quot;color: rgb(0 , 0 , 0)&quot;&gt;properties &lt;/span&gt;&lt;span class=&quot;pun&quot; style=&quot;color: rgb(102 , 102 , 0)&quot;&gt;=&lt;/span&gt;&lt;span class=&quot;pln&quot; style=&quot;color: rgb(0 , 0 , 0)&quot;&gt; properties&lt;/span&gt;&lt;span class=&quot;pun&quot; style=&quot;color: rgb(102 , 102 , 0)&quot;&gt;;&lt;/span&gt;&lt;span class=&quot;pln&quot; style=&quot;color: rgb(0 , 0 , 0)&quot;&gt;&#xa;  &lt;/span&gt;&lt;span class=&quot;pun&quot; style=&quot;color: rgb(102 , 102 , 0)&quot;&gt;}&lt;/span&gt;&lt;span class=&quot;pln&quot; style=&quot;color: rgb(0 , 0 , 0)&quot;&gt;&#xa;&lt;/span&gt;&lt;span class=&quot;pun&quot; style=&quot;color: rgb(102 , 102 , 0)&quot;&gt;}&lt;/span&gt;&lt;/pre&gt;&lt;/div&gt;&lt;div class=&quot;source&quot; style=&quot;color: rgb(51, 51, 51); font-family: &amp;quot;helvetica neue&amp;quot;, helvetica, arial, sans-serif; font-size: 14px; font-style: normal; font-weight: 400; letter-spacing: normal; text-indent: 0px; text-transform: none; word-spacing: 0px; background-color: rgb(255, 255, 255);&quot;&gt;&lt;pre class=&quot;prettyprint&quot; style=&quot;padding: 2px; font-family: monaco, menlo, consolas, &amp;quot;courier new&amp;quot;, monospace; font-size: 13px; color: rgb(51, 51, 51); border-radius: 4px; display: block; margin: 0px 0px 20px; line-height: 20px; word-break: break-all; overflow-wrap: break-word; background-color: rgb(245, 245, 245); border: 1px solid rgb(136, 136, 136);&quot;&gt;&lt;span class=&quot;com&quot; style=&quot;color: rgb(136 , 0 , 0)&quot;&gt;&amp;lt;!-- mybatis-config.xml --&amp;gt;&lt;/span&gt;&lt;span class=&quot;pln&quot; style=&quot;color: rgb(0 , 0 , 0)&quot;&gt;&#xa;&lt;/span&gt;&lt;span class=&quot;tag&quot; style=&quot;color: rgb(0 , 0 , 136)&quot;&gt;&amp;lt;plugins&amp;gt;&lt;/span&gt;&lt;span class=&quot;pln&quot; style=&quot;color: rgb(0 , 0 , 0)&quot;&gt;&#xa;  &lt;/span&gt;&lt;span class=&quot;tag&quot; style=&quot;color: rgb(0 , 0 , 136)&quot;&gt;&amp;lt;plugin&lt;/span&gt;&lt;span class=&quot;pln&quot; style=&quot;color: rgb(0 , 0 , 0)&quot;&gt; &lt;/span&gt;&lt;span class=&quot;atn&quot; style=&quot;color: rgb(102 , 0 , 102)&quot;&gt;interceptor&lt;/span&gt;&lt;span class=&quot;pun&quot; style=&quot;color: rgb(102 , 102 , 0)&quot;&gt;=&lt;/span&gt;&lt;span class=&quot;atv&quot; style=&quot;color: rgb(0 , 136 , 0)&quot;&gt;&quot;org.mybatis.example.ExamplePlugin&quot;&lt;/span&gt;&lt;span class=&quot;tag&quot; style=&quot;color: rgb(0 , 0 , 136)&quot;&gt;&amp;gt;&lt;/span&gt;&lt;span class=&quot;pln&quot; style=&quot;color: rgb(0 , 0 , 0)&quot;&gt;&#xa;    &lt;/span&gt;&lt;span class=&quot;tag&quot; style=&quot;color: rgb(0 , 0 , 136)&quot;&gt;&amp;lt;property&lt;/span&gt;&lt;span class=&quot;pln&quot; style=&quot;color: rgb(0 , 0 , 0)&quot;&gt; &lt;/span&gt;&lt;span class=&quot;atn&quot; style=&quot;color: rgb(102 , 0 , 102)&quot;&gt;name&lt;/span&gt;&lt;span class=&quot;pun&quot; style=&quot;color: rgb(102 , 102 , 0)&quot;&gt;=&lt;/span&gt;&lt;span class=&quot;atv&quot; style=&quot;color: rgb(0 , 136 , 0)&quot;&gt;&quot;someProperty&quot;&lt;/span&gt;&lt;span class=&quot;pln&quot; style=&quot;color: rgb(0 , 0 , 0)&quot;&gt; &lt;/span&gt;&lt;span class=&quot;atn&quot; style=&quot;color: rgb(102 , 0 , 102)&quot;&gt;value&lt;/span&gt;&lt;span class=&quot;pun&quot; style=&quot;color: rgb(102 , 102 , 0)&quot;&gt;=&lt;/span&gt;&lt;span class=&quot;atv&quot; style=&quot;color: rgb(0 , 136 , 0)&quot;&gt;&quot;100&quot;&lt;/span&gt;&lt;span class=&quot;tag&quot; style=&quot;color: rgb(0 , 0 , 136)&quot;&gt;/&amp;gt;&lt;/span&gt;&lt;span class=&quot;pln&quot; style=&quot;color: rgb(0 , 0 , 0)&quot;&gt;&#xa;  &lt;/span&gt;&lt;span class=&quot;tag&quot; style=&quot;color: rgb(0 , 0 , 136)&quot;&gt;&amp;lt;/plugin&amp;gt;&lt;/span&gt;&lt;span class=&quot;pln&quot; style=&quot;color: rgb(0 , 0 , 0)&quot;&gt;&#xa;&lt;/span&gt;&lt;span class=&quot;tag&quot; style=&quot;color: rgb(0 , 0 , 136)&quot;&gt;&amp;lt;/plugins&amp;gt;&lt;/span&gt;&lt;/pre&gt;&lt;/div&gt;" style="text;whiteSpace=wrap;html=1;" vertex="1" parent="1">
          <mxGeometry x="1380" y="2870" width="550" height="530" as="geometry" />
        </mxCell>
      </root>
    </mxGraphModel>
  </diagram>
</mxfile>
